<svg width="250" height="150" viewBox="0 0 250 150" fill="none" xmlns="http://www.w3.org/2000/svg">
<rect x="1" y="1" width="248" height="148" rx="9" fill="white"/>
<path d="M20.528 18.624V19.98H18.296V27H16.616V19.98H14.384V18.624H20.528ZM24.7058 27.108C24.0658 27.108 23.4898 26.968 22.9778 26.688C22.4658 26.4 22.0618 25.996 21.7658 25.476C21.4778 24.956 21.3338 24.356 21.3338 23.676C21.3338 22.996 21.4818 22.396 21.7778 21.876C22.0818 21.356 22.4938 20.956 23.0138 20.676C23.5338 20.388 24.1138 20.244 24.7538 20.244C25.3938 20.244 25.9738 20.388 26.4938 20.676C27.0138 20.956 27.4218 21.356 27.7178 21.876C28.0218 22.396 28.1738 22.996 28.1738 23.676C28.1738 24.356 28.0178 24.956 27.7058 25.476C27.4018 25.996 26.9858 26.4 26.4578 26.688C25.9378 26.968 25.3538 27.108 24.7058 27.108ZM24.7058 25.644C25.0098 25.644 25.2938 25.572 25.5578 25.428C25.8298 25.276 26.0458 25.052 26.2058 24.756C26.3658 24.46 26.4458 24.1 26.4458 23.676C26.4458 23.044 26.2778 22.56 25.9418 22.224C25.6138 21.88 25.2098 21.708 24.7298 21.708C24.2498 21.708 23.8458 21.88 23.5178 22.224C23.1978 22.56 23.0378 23.044 23.0378 23.676C23.0378 24.308 23.1938 24.796 23.5058 25.14C23.8258 25.476 24.2258 25.644 24.7058 25.644ZM31.3621 21.732V24.948C31.3621 25.172 31.4141 25.336 31.5181 25.44C31.6301 25.536 31.8141 25.584 32.0701 25.584H32.8501V27H31.7941C30.3781 27 29.6701 26.312 29.6701 24.936V21.732H28.8781V20.352H29.6701V18.708H31.3621V20.352H32.8501V21.732H31.3621ZM33.6265 23.652C33.6265 22.98 33.7585 22.384 34.0225 21.864C34.2945 21.344 34.6585 20.944 35.1145 20.664C35.5785 20.384 36.0945 20.244 36.6625 20.244C37.1585 20.244 37.5905 20.344 37.9585 20.544C38.3345 20.744 38.6345 20.996 38.8585 21.3V20.352H40.5505V27H38.8585V26.028C38.6425 26.34 38.3425 26.6 37.9585 26.808C37.5825 27.008 37.1465 27.108 36.6505 27.108C36.0905 27.108 35.5785 26.964 35.1145 26.676C34.6585 26.388 34.2945 25.984 34.0225 25.464C33.7585 24.936 33.6265 24.332 33.6265 23.652ZM38.8585 23.676C38.8585 23.268 38.7785 22.92 38.6185 22.632C38.4585 22.336 38.2425 22.112 37.9705 21.96C37.6985 21.8 37.4065 21.72 37.0945 21.72C36.7825 21.72 36.4945 21.796 36.2305 21.948C35.9665 22.1 35.7505 22.324 35.5825 22.62C35.4225 22.908 35.3425 23.252 35.3425 23.652C35.3425 24.052 35.4225 24.404 35.5825 24.708C35.7505 25.004 35.9665 25.232 36.2305 25.392C36.5025 25.552 36.7905 25.632 37.0945 25.632C37.4065 25.632 37.6985 25.556 37.9705 25.404C38.2425 25.244 38.4585 25.02 38.6185 24.732C38.7785 24.436 38.8585 24.084 38.8585 23.676ZM43.8713 18.12V27H42.1913V18.12H43.8713ZM53.5265 25.404H50.1905L49.6385 27H47.8745L50.8865 18.612H52.8425L55.8545 27H54.0785L53.5265 25.404ZM53.0705 24.06L51.8585 20.556L50.6465 24.06H53.0705ZM58.6603 21.312C58.8763 21.008 59.1723 20.756 59.5483 20.556C59.9323 20.348 60.3683 20.244 60.8563 20.244C61.4243 20.244 61.9363 20.384 62.3923 20.664C62.8563 20.944 63.2203 21.344 63.4843 21.864C63.7563 22.376 63.8923 22.972 63.8923 23.652C63.8923 24.332 63.7563 24.936 63.4843 25.464C63.2203 25.984 62.8563 26.388 62.3923 26.676C61.9363 26.964 61.4243 27.108 60.8563 27.108C60.3683 27.108 59.9363 27.008 59.5603 26.808C59.1923 26.608 58.8923 26.356 58.6603 26.052V30.168H56.9803V20.352H58.6603V21.312ZM62.1763 23.652C62.1763 23.252 62.0923 22.908 61.9243 22.62C61.7643 22.324 61.5483 22.1 61.2763 21.948C61.0123 21.796 60.7243 21.72 60.4123 21.72C60.1083 21.72 59.8203 21.8 59.5483 21.96C59.2843 22.112 59.0683 22.336 58.9003 22.632C58.7403 22.928 58.6603 23.276 58.6603 23.676C58.6603 24.076 58.7403 24.424 58.9003 24.72C59.0683 25.016 59.2843 25.244 59.5483 25.404C59.8203 25.556 60.1083 25.632 60.4123 25.632C60.7243 25.632 61.0123 25.552 61.2763 25.392C61.5483 25.232 61.7643 25.004 61.9243 24.708C62.0923 24.412 62.1763 24.06 62.1763 23.652ZM66.7932 21.312C67.0092 21.008 67.3052 20.756 67.6812 20.556C68.0652 20.348 68.5012 20.244 68.9892 20.244C69.5572 20.244 70.0692 20.384 70.5252 20.664C70.9892 20.944 71.3532 21.344 71.6172 21.864C71.8892 22.376 72.0252 22.972 72.0252 23.652C72.0252 24.332 71.8892 24.936 71.6172 25.464C71.3532 25.984 70.9892 26.388 70.5252 26.676C70.0692 26.964 69.5572 27.108 68.9892 27.108C68.5012 27.108 68.0692 27.008 67.6932 26.808C67.3252 26.608 67.0252 26.356 66.7932 26.052V30.168H65.1132V20.352H66.7932V21.312ZM70.3092 23.652C70.3092 23.252 70.2252 22.908 70.0572 22.62C69.8972 22.324 69.6812 22.1 69.4092 21.948C69.1452 21.796 68.8572 21.72 68.5452 21.72C68.2412 21.72 67.9532 21.8 67.6812 21.96C67.4172 22.112 67.2012 22.336 67.0332 22.632C66.8732 22.928 66.7932 23.276 66.7932 23.676C66.7932 24.076 66.8732 24.424 67.0332 24.72C67.2012 25.016 67.4172 25.244 67.6812 25.404C67.9532 25.556 68.2412 25.632 68.5452 25.632C68.8572 25.632 69.1452 25.552 69.4092 25.392C69.6812 25.232 69.8972 25.004 70.0572 24.708C70.2252 24.412 70.3092 24.06 70.3092 23.652ZM75.79 27.108C75.246 27.108 74.758 27.012 74.326 26.82C73.894 26.62 73.55 26.352 73.294 26.016C73.046 25.68 72.91 25.308 72.886 24.9H74.578C74.61 25.156 74.734 25.368 74.95 25.536C75.174 25.704 75.45 25.788 75.778 25.788C76.098 25.788 76.346 25.724 76.522 25.596C76.706 25.468 76.798 25.304 76.798 25.104C76.798 24.888 76.686 24.728 76.462 24.624C76.246 24.512 75.898 24.392 75.418 24.264C74.922 24.144 74.514 24.02 74.194 23.892C73.882 23.764 73.61 23.568 73.378 23.304C73.154 23.04 73.042 22.684 73.042 22.236C73.042 21.868 73.146 21.532 73.354 21.228C73.57 20.924 73.874 20.684 74.266 20.508C74.666 20.332 75.134 20.244 75.67 20.244C76.462 20.244 77.094 20.444 77.566 20.844C78.038 21.236 78.298 21.768 78.346 22.44H76.738C76.714 22.176 76.602 21.968 76.402 21.816C76.21 21.656 75.95 21.576 75.622 21.576C75.318 21.576 75.082 21.632 74.914 21.744C74.754 21.856 74.674 22.012 74.674 22.212C74.674 22.436 74.786 22.608 75.01 22.728C75.234 22.84 75.582 22.956 76.054 23.076C76.534 23.196 76.93 23.32 77.242 23.448C77.554 23.576 77.822 23.776 78.046 24.048C78.278 24.312 78.398 24.664 78.406 25.104C78.406 25.488 78.298 25.832 78.082 26.136C77.874 26.44 77.57 26.68 77.17 26.856C76.778 27.024 76.318 27.108 75.79 27.108ZM91.7764 18.624V27H90.0964V21.552L87.8524 27H86.5804L84.3244 21.552V27H82.6444V18.624H84.5524L87.2164 24.852L89.8804 18.624H91.7764ZM93.0054 23.652C93.0054 22.98 93.1374 22.384 93.4014 21.864C93.6734 21.344 94.0374 20.944 94.4934 20.664C94.9574 20.384 95.4734 20.244 96.0414 20.244C96.5374 20.244 96.9694 20.344 97.3374 20.544C97.7134 20.744 98.0134 20.996 98.2374 21.3V20.352H99.9294V27H98.2374V26.028C98.0214 26.34 97.7214 26.6 97.3374 26.808C96.9614 27.008 96.5254 27.108 96.0294 27.108C95.4694 27.108 94.9574 26.964 94.4934 26.676C94.0374 26.388 93.6734 25.984 93.4014 25.464C93.1374 24.936 93.0054 24.332 93.0054 23.652ZM98.2374 23.676C98.2374 23.268 98.1574 22.92 97.9974 22.632C97.8374 22.336 97.6214 22.112 97.3494 21.96C97.0774 21.8 96.7854 21.72 96.4734 21.72C96.1614 21.72 95.8734 21.796 95.6094 21.948C95.3454 22.1 95.1294 22.324 94.9614 22.62C94.8014 22.908 94.7214 23.252 94.7214 23.652C94.7214 24.052 94.8014 24.404 94.9614 24.708C95.1294 25.004 95.3454 25.232 95.6094 25.392C95.8814 25.552 96.1694 25.632 96.4734 25.632C96.7854 25.632 97.0774 25.556 97.3494 25.404C97.6214 25.244 97.8374 25.02 97.9974 24.732C98.1574 24.436 98.2374 24.084 98.2374 23.676ZM107.93 20.352L103.814 30.144H102.026L103.466 26.832L100.802 20.352H102.686L104.402 24.996L106.142 20.352H107.93ZM112.031 25.104C112.799 24.464 113.411 23.932 113.867 23.508C114.323 23.076 114.703 22.628 115.007 22.164C115.311 21.7 115.463 21.244 115.463 20.796C115.463 20.388 115.367 20.068 115.175 19.836C114.983 19.604 114.687 19.488 114.287 19.488C113.887 19.488 113.579 19.624 113.363 19.896C113.147 20.16 113.035 20.524 113.027 20.988H111.395C111.427 20.028 111.711 19.3 112.247 18.804C112.791 18.308 113.479 18.06 114.311 18.06C115.223 18.06 115.923 18.304 116.411 18.792C116.899 19.272 117.143 19.908 117.143 20.7C117.143 21.324 116.975 21.92 116.639 22.488C116.303 23.056 115.919 23.552 115.487 23.976C115.055 24.392 114.491 24.896 113.795 25.488H117.335V26.88H111.407V25.632L112.031 25.104ZM118.394 22.512C118.394 21.128 118.642 20.044 119.138 19.26C119.642 18.476 120.474 18.084 121.634 18.084C122.794 18.084 123.622 18.476 124.118 19.26C124.622 20.044 124.874 21.128 124.874 22.512C124.874 23.904 124.622 24.996 124.118 25.788C123.622 26.58 122.794 26.976 121.634 26.976C120.474 26.976 119.642 26.58 119.138 25.788C118.642 24.996 118.394 23.904 118.394 22.512ZM123.218 22.512C123.218 21.92 123.178 21.424 123.098 21.024C123.026 20.616 122.874 20.284 122.642 20.028C122.418 19.772 122.082 19.644 121.634 19.644C121.186 19.644 120.846 19.772 120.614 20.028C120.39 20.284 120.238 20.616 120.158 21.024C120.086 21.424 120.05 21.92 120.05 22.512C120.05 23.12 120.086 23.632 120.158 24.048C120.23 24.456 120.382 24.788 120.614 25.044C120.846 25.292 121.186 25.416 121.634 25.416C122.082 25.416 122.422 25.292 122.654 25.044C122.886 24.788 123.038 24.456 123.11 24.048C123.182 23.632 123.218 23.12 123.218 22.512ZM126.68 25.104C127.448 24.464 128.06 23.932 128.516 23.508C128.972 23.076 129.352 22.628 129.656 22.164C129.96 21.7 130.112 21.244 130.112 20.796C130.112 20.388 130.016 20.068 129.824 19.836C129.632 19.604 129.336 19.488 128.936 19.488C128.536 19.488 128.228 19.624 128.012 19.896C127.796 20.16 127.684 20.524 127.676 20.988H126.044C126.076 20.028 126.36 19.3 126.896 18.804C127.44 18.308 128.128 18.06 128.96 18.06C129.872 18.06 130.572 18.304 131.06 18.792C131.548 19.272 131.792 19.908 131.792 20.7C131.792 21.324 131.624 21.92 131.288 22.488C130.952 23.056 130.568 23.552 130.136 23.976C129.704 24.392 129.14 24.896 128.444 25.488H131.984V26.88H126.056V25.632L126.68 25.104ZM133.57 25.104C134.338 24.464 134.95 23.932 135.406 23.508C135.862 23.076 136.242 22.628 136.546 22.164C136.85 21.7 137.002 21.244 137.002 20.796C137.002 20.388 136.906 20.068 136.714 19.836C136.522 19.604 136.226 19.488 135.826 19.488C135.426 19.488 135.118 19.624 134.902 19.896C134.686 20.16 134.574 20.524 134.566 20.988H132.934C132.966 20.028 133.25 19.3 133.786 18.804C134.33 18.308 135.018 18.06 135.85 18.06C136.762 18.06 137.462 18.304 137.95 18.792C138.438 19.272 138.682 19.908 138.682 20.7C138.682 21.324 138.514 21.92 138.178 22.488C137.842 23.056 137.458 23.552 137.026 23.976C136.594 24.392 136.03 24.896 135.334 25.488H138.874V26.88H132.946V25.632L133.57 25.104Z" fill="#6D5A8E"/>
<path d="M228 16C224.134 16 221 19.1344 221 23C221 26.8656 224.134 30 228 30C231.866 30 235 26.8656 235 23C235 19.1344 231.866 16 228 16ZM228.5 26.375C228.5 26.4438 228.444 26.5 228.375 26.5H227.625C227.556 26.5 227.5 26.4438 227.5 26.375V22.125C227.5 22.0562 227.556 22 227.625 22H228.375C228.444 22 228.5 22.0562 228.5 22.125V26.375ZM228 21C227.804 20.996 227.617 20.9152 227.479 20.775C227.342 20.6348 227.265 20.4463 227.265 20.25C227.265 20.0537 227.342 19.8652 227.479 19.725C227.617 19.5848 227.804 19.504 228 19.5C228.196 19.504 228.383 19.5848 228.521 19.725C228.658 19.8652 228.735 20.0537 228.735 20.25C228.735 20.4463 228.658 20.6348 228.521 20.775C228.383 20.9152 228.196 20.996 228 21Z" fill="#6D5A8E"/>
<rect x="79" y="41" width="50" height="50" rx="25" fill="#6D5A8E" fill-opacity="0.2"/>
<path d="M102.812 55.375C103.558 55.375 104.274 55.6713 104.801 56.1988C105.329 56.7262 105.625 57.4416 105.625 58.1875V64.375H111.812C112.558 64.375 113.274 64.6713 113.801 65.1988C114.329 65.7262 114.625 66.4416 114.625 67.1875V72.8125C114.625 73.5584 114.329 74.2738 113.801 74.8012C113.274 75.3287 112.558 75.625 111.812 75.625H97.1875C96.4416 75.625 95.7262 75.3287 95.1988 74.8012C94.6713 74.2738 94.375 73.5584 94.375 72.8125V58.1875C94.375 57.4416 94.6713 56.7262 95.1988 56.1988C95.7262 55.6713 96.4416 55.375 97.1875 55.375H102.812ZM103.375 66.625H96.625V72.8125C96.625 72.9617 96.6843 73.1048 96.7898 73.2102C96.8952 73.3157 97.0383 73.375 97.1875 73.375H103.375V66.625ZM111.812 66.625H105.625V73.375H111.812C111.962 73.375 112.105 73.3157 112.21 73.2102C112.316 73.1048 112.375 72.9617 112.375 72.8125V67.1875C112.375 67.0383 112.316 66.8952 112.21 66.7898C112.105 66.6843 111.962 66.625 111.812 66.625ZM102.812 57.625H97.1875C97.0383 57.625 96.8952 57.6843 96.7898 57.7898C96.6843 57.8952 96.625 58.0383 96.625 58.1875V64.375H103.375V58.1875C103.375 58.0383 103.316 57.8952 103.21 57.7898C103.105 57.6843 102.962 57.625 102.812 57.625ZM111.118 54.2579L111.25 54.25C111.526 54.25 111.792 54.3512 111.997 54.5343C112.203 54.7174 112.335 54.9697 112.367 55.2434L112.375 55.375V57.625H114.625C114.901 57.625 115.167 57.7262 115.372 57.9093C115.578 58.0924 115.71 58.3447 115.742 58.6184L115.75 58.75C115.75 59.0255 115.649 59.2915 115.466 59.4974C115.283 59.7033 115.03 59.8349 114.757 59.8671L114.625 59.875H112.375V62.125C112.375 62.4005 112.274 62.6665 112.091 62.8724C111.908 63.0783 111.655 63.2099 111.382 63.2421L111.25 63.25C110.974 63.25 110.708 63.1488 110.503 62.9657C110.297 62.7826 110.165 62.5303 110.133 62.2566L110.125 62.125V59.875H107.875C107.599 59.875 107.333 59.7738 107.128 59.5907C106.922 59.4076 106.79 59.1553 106.758 58.8816L106.75 58.75C106.75 58.4745 106.851 58.2085 107.034 58.0026C107.217 57.7967 107.47 57.6651 107.743 57.6329L107.875 57.625H110.125V55.375C110.125 55.0995 110.226 54.8335 110.409 54.6276C110.592 54.4217 110.845 54.2901 111.118 54.2579L111.25 54.25L111.118 54.2579Z" fill="#6D5A8E"/>
<path d="M144.792 59.8V56.962H150.094V73H146.926V59.8H144.792ZM155.821 64.508C154.354 63.7453 153.621 62.5647 153.621 60.966C153.621 60.174 153.819 59.4553 154.215 58.81C154.625 58.15 155.234 57.6293 156.041 57.248C156.862 56.852 157.859 56.654 159.033 56.654C160.206 56.654 161.196 56.852 162.003 57.248C162.824 57.6293 163.433 58.15 163.829 58.81C164.239 59.4553 164.445 60.174 164.445 60.966C164.445 61.7727 164.247 62.484 163.851 63.1C163.455 63.7013 162.927 64.1707 162.267 64.508C163.073 64.86 163.704 65.3733 164.159 66.048C164.613 66.7227 164.841 67.522 164.841 68.446C164.841 69.4433 164.584 70.316 164.071 71.064C163.572 71.7973 162.883 72.362 162.003 72.758C161.123 73.154 160.133 73.352 159.033 73.352C157.933 73.352 156.943 73.154 156.063 72.758C155.197 72.362 154.508 71.7973 153.995 71.064C153.496 70.316 153.247 69.4433 153.247 68.446C153.247 67.522 153.474 66.7227 153.929 66.048C154.383 65.3587 155.014 64.8453 155.821 64.508ZM161.453 61.406C161.453 60.6873 161.233 60.13 160.793 59.734C160.367 59.338 159.781 59.14 159.033 59.14C158.299 59.14 157.713 59.338 157.273 59.734C156.847 60.13 156.635 60.6947 156.635 61.428C156.635 62.088 156.855 62.616 157.295 63.012C157.749 63.408 158.329 63.606 159.033 63.606C159.737 63.606 160.316 63.408 160.771 63.012C161.225 62.6013 161.453 62.066 161.453 61.406ZM159.033 65.85C158.197 65.85 157.515 66.0627 156.987 66.488C156.473 66.9133 156.217 67.522 156.217 68.314C156.217 69.0473 156.466 69.6487 156.965 70.118C157.478 70.5727 158.167 70.8 159.033 70.8C159.898 70.8 160.58 70.5653 161.079 70.096C161.577 69.6267 161.827 69.0327 161.827 68.314C161.827 67.5367 161.57 66.9353 161.057 66.51C160.543 66.07 159.869 65.85 159.033 65.85ZM178.053 59.624H170.925V63.386C171.233 63.0047 171.673 62.6967 172.245 62.462C172.817 62.2127 173.426 62.088 174.071 62.088C175.245 62.088 176.205 62.3447 176.953 62.858C177.701 63.3713 178.244 64.0313 178.581 64.838C178.919 65.63 179.087 66.4807 179.087 67.39C179.087 69.0767 178.603 70.4333 177.635 71.46C176.682 72.4867 175.318 73 173.543 73C171.871 73 170.537 72.582 169.539 71.746C168.542 70.91 167.977 69.8173 167.845 68.468H170.837C170.969 69.0547 171.263 69.524 171.717 69.876C172.187 70.228 172.781 70.404 173.499 70.404C174.365 70.404 175.017 70.1327 175.457 69.59C175.897 69.0473 176.117 68.3287 176.117 67.434C176.117 66.5247 175.89 65.8353 175.435 65.366C174.995 64.882 174.343 64.64 173.477 64.64C172.861 64.64 172.348 64.794 171.937 65.102C171.527 65.41 171.233 65.8207 171.057 66.334H168.109V56.918H178.053V59.624Z" fill="#6D5A8E"/>
<path d="M41.97 109.67H39.19L38.73 111H37.26L39.77 104.01H41.4L43.91 111H42.43L41.97 109.67ZM41.59 108.55L40.58 105.63L39.57 108.55H41.59ZM44.4882 108.23C44.4882 107.657 44.6049 107.157 44.8382 106.73C45.0715 106.297 45.3949 105.963 45.8082 105.73C46.2215 105.49 46.6949 105.37 47.2282 105.37C47.9149 105.37 48.4815 105.543 48.9282 105.89C49.3815 106.23 49.6849 106.71 49.8382 107.33H48.3282C48.2482 107.09 48.1115 106.903 47.9182 106.77C47.7315 106.63 47.4982 106.56 47.2182 106.56C46.8182 106.56 46.5015 106.707 46.2682 107C46.0349 107.287 45.9182 107.697 45.9182 108.23C45.9182 108.757 46.0349 109.167 46.2682 109.46C46.5015 109.747 46.8182 109.89 47.2182 109.89C47.7849 109.89 48.1549 109.637 48.3282 109.13H49.8382C49.6849 109.73 49.3815 110.207 48.9282 110.56C48.4749 110.913 47.9082 111.09 47.2282 111.09C46.6949 111.09 46.2215 110.973 45.8082 110.74C45.3949 110.5 45.0715 110.167 44.8382 109.74C44.6049 109.307 44.4882 108.803 44.4882 108.23ZM52.4938 106.61V109.29C52.4938 109.477 52.5372 109.613 52.6238 109.7C52.7172 109.78 52.8705 109.82 53.0838 109.82H53.7338V111H52.8538C51.6738 111 51.0838 110.427 51.0838 109.28V106.61H50.4238V105.46H51.0838V104.09H52.4938V105.46H53.7338V106.61H52.4938ZM55.4508 104.8C55.2041 104.8 54.9974 104.723 54.8308 104.57C54.6708 104.41 54.5908 104.213 54.5908 103.98C54.5908 103.747 54.6708 103.553 54.8308 103.4C54.9974 103.24 55.2041 103.16 55.4508 103.16C55.6974 103.16 55.9008 103.24 56.0608 103.4C56.2274 103.553 56.3108 103.747 56.3108 103.98C56.3108 104.213 56.2274 104.41 56.0608 104.57C55.9008 104.723 55.6974 104.8 55.4508 104.8ZM56.1408 105.46V111H54.7408V105.46H56.1408ZM59.834 109.71L61.234 105.46H62.724L60.674 111H58.974L56.934 105.46H58.434L59.834 109.71ZM68.6603 108.11C68.6603 108.31 68.647 108.49 68.6203 108.65H64.5703C64.6036 109.05 64.7436 109.363 64.9903 109.59C65.237 109.817 65.5403 109.93 65.9003 109.93C66.4203 109.93 66.7903 109.707 67.0103 109.26H68.5203C68.3603 109.793 68.0536 110.233 67.6003 110.58C67.147 110.92 66.5903 111.09 65.9303 111.09C65.397 111.09 64.917 110.973 64.4903 110.74C64.0703 110.5 63.7403 110.163 63.5003 109.73C63.267 109.297 63.1503 108.797 63.1503 108.23C63.1503 107.657 63.267 107.153 63.5003 106.72C63.7336 106.287 64.0603 105.953 64.4803 105.72C64.9003 105.487 65.3836 105.37 65.9303 105.37C66.457 105.37 66.927 105.483 67.3403 105.71C67.7603 105.937 68.0836 106.26 68.3103 106.68C68.5436 107.093 68.6603 107.57 68.6603 108.11ZM67.2103 107.71C67.2036 107.35 67.0736 107.063 66.8203 106.85C66.567 106.63 66.257 106.52 65.8903 106.52C65.5436 106.52 65.2503 106.627 65.0103 106.84C64.777 107.047 64.6336 107.337 64.5803 107.71H67.2103ZM76.345 109.67H73.565L73.105 111H71.635L74.145 104.01H75.775L78.285 111H76.805L76.345 109.67ZM75.965 108.55L74.955 105.63L73.945 108.55H75.965ZM80.6232 106.26C80.8032 106.007 81.0499 105.797 81.3632 105.63C81.6832 105.457 82.0465 105.37 82.4532 105.37C82.9265 105.37 83.3532 105.487 83.7332 105.72C84.1199 105.953 84.4232 106.287 84.6432 106.72C84.8699 107.147 84.9832 107.643 84.9832 108.21C84.9832 108.777 84.8699 109.28 84.6432 109.72C84.4232 110.153 84.1199 110.49 83.7332 110.73C83.3532 110.97 82.9265 111.09 82.4532 111.09C82.0465 111.09 81.6865 111.007 81.3732 110.84C81.0665 110.673 80.8165 110.463 80.6232 110.21V113.64H79.2232V105.46H80.6232V106.26ZM83.5532 108.21C83.5532 107.877 83.4832 107.59 83.3432 107.35C83.2099 107.103 83.0299 106.917 82.8032 106.79C82.5832 106.663 82.3432 106.6 82.0832 106.6C81.8299 106.6 81.5899 106.667 81.3632 106.8C81.1432 106.927 80.9632 107.113 80.8232 107.36C80.6899 107.607 80.6232 107.897 80.6232 108.23C80.6232 108.563 80.6899 108.853 80.8232 109.1C80.9632 109.347 81.1432 109.537 81.3632 109.67C81.5899 109.797 81.8299 109.86 82.0832 109.86C82.3432 109.86 82.5832 109.793 82.8032 109.66C83.0299 109.527 83.2099 109.337 83.3432 109.09C83.4832 108.843 83.5532 108.55 83.5532 108.21ZM87.4005 106.26C87.5805 106.007 87.8272 105.797 88.1405 105.63C88.4605 105.457 88.8239 105.37 89.2305 105.37C89.7039 105.37 90.1305 105.487 90.5105 105.72C90.8972 105.953 91.2005 106.287 91.4205 106.72C91.6472 107.147 91.7605 107.643 91.7605 108.21C91.7605 108.777 91.6472 109.28 91.4205 109.72C91.2005 110.153 90.8972 110.49 90.5105 110.73C90.1305 110.97 89.7039 111.09 89.2305 111.09C88.8239 111.09 88.4639 111.007 88.1505 110.84C87.8439 110.673 87.5939 110.463 87.4005 110.21V113.64H86.0005V105.46H87.4005V106.26ZM90.3305 108.21C90.3305 107.877 90.2605 107.59 90.1205 107.35C89.9872 107.103 89.8072 106.917 89.5805 106.79C89.3605 106.663 89.1205 106.6 88.8605 106.6C88.6072 106.6 88.3672 106.667 88.1405 106.8C87.9205 106.927 87.7405 107.113 87.6005 107.36C87.4672 107.607 87.4005 107.897 87.4005 108.23C87.4005 108.563 87.4672 108.853 87.6005 109.1C87.7405 109.347 87.9205 109.537 88.1405 109.67C88.3672 109.797 88.6072 109.86 88.8605 109.86C89.1205 109.86 89.3605 109.793 89.5805 109.66C89.8072 109.527 89.9872 109.337 90.1205 109.09C90.2605 108.843 90.3305 108.55 90.3305 108.21ZM94.8979 111.09C94.4446 111.09 94.0379 111.01 93.6779 110.85C93.3179 110.683 93.0312 110.46 92.8179 110.18C92.6112 109.9 92.4979 109.59 92.4779 109.25H93.8879C93.9146 109.463 94.0179 109.64 94.1979 109.78C94.3846 109.92 94.6146 109.99 94.8879 109.99C95.1546 109.99 95.3612 109.937 95.5079 109.83C95.6612 109.723 95.7379 109.587 95.7379 109.42C95.7379 109.24 95.6446 109.107 95.4579 109.02C95.2779 108.927 94.9879 108.827 94.5879 108.72C94.1746 108.62 93.8346 108.517 93.5679 108.41C93.3079 108.303 93.0812 108.14 92.8879 107.92C92.7012 107.7 92.6079 107.403 92.6079 107.03C92.6079 106.723 92.6946 106.443 92.8679 106.19C93.0479 105.937 93.3012 105.737 93.6279 105.59C93.9612 105.443 94.3512 105.37 94.7979 105.37C95.4579 105.37 95.9846 105.537 96.3779 105.87C96.7712 106.197 96.9879 106.64 97.0279 107.2H95.6879C95.6679 106.98 95.5746 106.807 95.4079 106.68C95.2479 106.547 95.0312 106.48 94.7579 106.48C94.5046 106.48 94.3079 106.527 94.1679 106.62C94.0346 106.713 93.9679 106.843 93.9679 107.01C93.9679 107.197 94.0612 107.34 94.2479 107.44C94.4346 107.533 94.7246 107.63 95.1179 107.73C95.5179 107.83 95.8479 107.933 96.1079 108.04C96.3679 108.147 96.5912 108.313 96.7779 108.54C96.9712 108.76 97.0712 109.053 97.0779 109.42C97.0779 109.74 96.9879 110.027 96.8079 110.28C96.6346 110.533 96.3812 110.733 96.0479 110.88C95.7212 111.02 95.3379 111.09 94.8979 111.09Z" fill="#6D5A8E"/>
<path d="M39.12 129.82H42.26V131H37.5V129.92L40.62 125.2H37.5V124.02H42.26V125.1L39.12 129.82ZM48.6017 128.11C48.6017 128.31 48.5884 128.49 48.5617 128.65H44.5117C44.5451 129.05 44.6851 129.363 44.9317 129.59C45.1784 129.817 45.4817 129.93 45.8417 129.93C46.3617 129.93 46.7317 129.707 46.9517 129.26H48.4617C48.3017 129.793 47.9951 130.233 47.5417 130.58C47.0884 130.92 46.5317 131.09 45.8717 131.09C45.3384 131.09 44.8584 130.973 44.4317 130.74C44.0117 130.5 43.6817 130.163 43.4417 129.73C43.2084 129.297 43.0917 128.797 43.0917 128.23C43.0917 127.657 43.2084 127.153 43.4417 126.72C43.6751 126.287 44.0017 125.953 44.4217 125.72C44.8417 125.487 45.3251 125.37 45.8717 125.37C46.3984 125.37 46.8684 125.483 47.2817 125.71C47.7017 125.937 48.0251 126.26 48.2517 126.68C48.4851 127.093 48.6017 127.57 48.6017 128.11ZM47.1517 127.71C47.1451 127.35 47.0151 127.063 46.7617 126.85C46.5084 126.63 46.1984 126.52 45.8317 126.52C45.4851 126.52 45.1917 126.627 44.9517 126.84C44.7184 127.047 44.5751 127.337 44.5217 127.71H47.1517ZM51.0236 126.32C51.2036 126.027 51.4369 125.797 51.7236 125.63C52.0169 125.463 52.3503 125.38 52.7236 125.38V126.85H52.3536C51.9136 126.85 51.5803 126.953 51.3536 127.16C51.1336 127.367 51.0236 127.727 51.0236 128.24V131H49.6236V125.46H51.0236V126.32ZM56.1266 131.09C55.5932 131.09 55.1132 130.973 54.6866 130.74C54.2599 130.5 53.9232 130.163 53.6766 129.73C53.4366 129.297 53.3166 128.797 53.3166 128.23C53.3166 127.663 53.4399 127.163 53.6866 126.73C53.9399 126.297 54.2832 125.963 54.7166 125.73C55.1499 125.49 55.6332 125.37 56.1666 125.37C56.6999 125.37 57.1832 125.49 57.6166 125.73C58.0499 125.963 58.3899 126.297 58.6366 126.73C58.8899 127.163 59.0166 127.663 59.0166 128.23C59.0166 128.797 58.8866 129.297 58.6266 129.73C58.3732 130.163 58.0266 130.5 57.5866 130.74C57.1532 130.973 56.6666 131.09 56.1266 131.09ZM56.1266 129.87C56.3799 129.87 56.6166 129.81 56.8366 129.69C57.0632 129.563 57.2432 129.377 57.3766 129.13C57.5099 128.883 57.5766 128.583 57.5766 128.23C57.5766 127.703 57.4366 127.3 57.1566 127.02C56.8832 126.733 56.5466 126.59 56.1466 126.59C55.7466 126.59 55.4099 126.733 55.1366 127.02C54.8699 127.3 54.7366 127.703 54.7366 128.23C54.7366 128.757 54.8666 129.163 55.1266 129.45C55.3932 129.73 55.7266 129.87 56.1266 129.87ZM67.6563 125.46V131H66.2463V130.3C66.0663 130.54 65.8297 130.73 65.5363 130.87C65.2497 131.003 64.9363 131.07 64.5963 131.07C64.163 131.07 63.7797 130.98 63.4463 130.8C63.113 130.613 62.8497 130.343 62.6563 129.99C62.4697 129.63 62.3763 129.203 62.3763 128.71V125.46H63.7763V128.51C63.7763 128.95 63.8863 129.29 64.1063 129.53C64.3263 129.763 64.6263 129.88 65.0063 129.88C65.393 129.88 65.6963 129.763 65.9163 129.53C66.1363 129.29 66.2463 128.95 66.2463 128.51V125.46H67.6563ZM71.1577 131.09C70.7043 131.09 70.2977 131.01 69.9377 130.85C69.5777 130.683 69.291 130.46 69.0777 130.18C68.871 129.9 68.7577 129.59 68.7377 129.25H70.1477C70.1743 129.463 70.2777 129.64 70.4577 129.78C70.6443 129.92 70.8743 129.99 71.1477 129.99C71.4143 129.99 71.621 129.937 71.7677 129.83C71.921 129.723 71.9977 129.587 71.9977 129.42C71.9977 129.24 71.9043 129.107 71.7177 129.02C71.5377 128.927 71.2477 128.827 70.8477 128.72C70.4343 128.62 70.0943 128.517 69.8277 128.41C69.5677 128.303 69.341 128.14 69.1477 127.92C68.961 127.7 68.8677 127.403 68.8677 127.03C68.8677 126.723 68.9543 126.443 69.1277 126.19C69.3077 125.937 69.561 125.737 69.8877 125.59C70.221 125.443 70.611 125.37 71.0577 125.37C71.7177 125.37 72.2443 125.537 72.6377 125.87C73.031 126.197 73.2477 126.64 73.2877 127.2H71.9477C71.9277 126.98 71.8343 126.807 71.6677 126.68C71.5077 126.547 71.291 126.48 71.0177 126.48C70.7643 126.48 70.5677 126.527 70.4277 126.62C70.2943 126.713 70.2277 126.843 70.2277 127.01C70.2277 127.197 70.321 127.34 70.5077 127.44C70.6943 127.533 70.9843 127.63 71.3777 127.73C71.7777 127.83 72.1077 127.933 72.3677 128.04C72.6277 128.147 72.851 128.313 73.0377 128.54C73.231 128.76 73.331 129.053 73.3377 129.42C73.3377 129.74 73.2477 130.027 73.0677 130.28C72.8943 130.533 72.641 130.733 72.3077 130.88C71.981 131.02 71.5977 131.09 71.1577 131.09ZM74.1269 128.21C74.1269 127.65 74.2369 127.153 74.4569 126.72C74.6835 126.287 74.9869 125.953 75.3669 125.72C75.7535 125.487 76.1835 125.37 76.6569 125.37C77.0702 125.37 77.4302 125.453 77.7369 125.62C78.0502 125.787 78.3002 125.997 78.4869 126.25V125.46H79.8969V131H78.4869V130.19C78.3069 130.45 78.0569 130.667 77.7369 130.84C77.4235 131.007 77.0602 131.09 76.6469 131.09C76.1802 131.09 75.7535 130.97 75.3669 130.73C74.9869 130.49 74.6835 130.153 74.4569 129.72C74.2369 129.28 74.1269 128.777 74.1269 128.21ZM78.4869 128.23C78.4869 127.89 78.4202 127.6 78.2869 127.36C78.1535 127.113 77.9735 126.927 77.7469 126.8C77.5202 126.667 77.2769 126.6 77.0169 126.6C76.7569 126.6 76.5169 126.663 76.2969 126.79C76.0769 126.917 75.8969 127.103 75.7569 127.35C75.6235 127.59 75.5569 127.877 75.5569 128.21C75.5569 128.543 75.6235 128.837 75.7569 129.09C75.8969 129.337 76.0769 129.527 76.2969 129.66C76.5235 129.793 76.7635 129.86 77.0169 129.86C77.2769 129.86 77.5202 129.797 77.7469 129.67C77.9735 129.537 78.1535 129.35 78.2869 129.11C78.4202 128.863 78.4869 128.57 78.4869 128.23ZM83.4342 125.37C83.8476 125.37 84.2109 125.453 84.5242 125.62C84.8376 125.78 85.0842 125.99 85.2642 126.25V125.46H86.6742V131.04C86.6742 131.553 86.5709 132.01 86.3642 132.41C86.1576 132.817 85.8476 133.137 85.4342 133.37C85.0209 133.61 84.5209 133.73 83.9342 133.73C83.1476 133.73 82.5009 133.547 81.9942 133.18C81.4942 132.813 81.2109 132.313 81.1442 131.68H82.5342C82.6076 131.933 82.7642 132.133 83.0042 132.28C83.2509 132.433 83.5476 132.51 83.8942 132.51C84.3009 132.51 84.6309 132.387 84.8842 132.14C85.1376 131.9 85.2642 131.533 85.2642 131.04V130.18C85.0842 130.44 84.8342 130.657 84.5142 130.83C84.2009 131.003 83.8409 131.09 83.4342 131.09C82.9676 131.09 82.5409 130.97 82.1542 130.73C81.7676 130.49 81.4609 130.153 81.2342 129.72C81.0142 129.28 80.9042 128.777 80.9042 128.21C80.9042 127.65 81.0142 127.153 81.2342 126.72C81.4609 126.287 81.7642 125.953 82.1442 125.72C82.5309 125.487 82.9609 125.37 83.4342 125.37ZM85.2642 128.23C85.2642 127.89 85.1976 127.6 85.0642 127.36C84.9309 127.113 84.7509 126.927 84.5242 126.8C84.2976 126.667 84.0542 126.6 83.7942 126.6C83.5342 126.6 83.2942 126.663 83.0742 126.79C82.8542 126.917 82.6742 127.103 82.5342 127.35C82.4009 127.59 82.3342 127.877 82.3342 128.21C82.3342 128.543 82.4009 128.837 82.5342 129.09C82.6742 129.337 82.8542 129.527 83.0742 129.66C83.3009 129.793 83.5409 129.86 83.7942 129.86C84.0542 129.86 84.2976 129.797 84.5242 129.67C84.7509 129.537 84.9309 129.35 85.0642 129.11C85.1976 128.863 85.2642 128.57 85.2642 128.23ZM93.1916 128.11C93.1916 128.31 93.1782 128.49 93.1516 128.65H89.1016C89.1349 129.05 89.2749 129.363 89.5216 129.59C89.7682 129.817 90.0716 129.93 90.4316 129.93C90.9516 129.93 91.3216 129.707 91.5416 129.26H93.0516C92.8916 129.793 92.5849 130.233 92.1316 130.58C91.6782 130.92 91.1216 131.09 90.4616 131.09C89.9282 131.09 89.4482 130.973 89.0216 130.74C88.6016 130.5 88.2716 130.163 88.0316 129.73C87.7982 129.297 87.6816 128.797 87.6816 128.23C87.6816 127.657 87.7982 127.153 88.0316 126.72C88.2649 126.287 88.5916 125.953 89.0116 125.72C89.4316 125.487 89.9149 125.37 90.4616 125.37C90.9882 125.37 91.4582 125.483 91.8716 125.71C92.2916 125.937 92.6149 126.26 92.8416 126.68C93.0749 127.093 93.1916 127.57 93.1916 128.11ZM91.7416 127.71C91.7349 127.35 91.6049 127.063 91.3516 126.85C91.0982 126.63 90.7882 126.52 90.4216 126.52C90.0749 126.52 89.7816 126.627 89.5416 126.84C89.3082 127.047 89.1649 127.337 89.1116 127.71H91.7416ZM100.876 129.67H98.0963L97.6363 131H96.1663L98.6763 124.01H100.306L102.816 131H101.336L100.876 129.67ZM100.496 128.55L99.4863 125.63L98.4762 128.55H100.496ZM105.154 126.26C105.334 126.007 105.581 125.797 105.894 125.63C106.214 125.457 106.578 125.37 106.984 125.37C107.458 125.37 107.884 125.487 108.264 125.72C108.651 125.953 108.954 126.287 109.174 126.72C109.401 127.147 109.514 127.643 109.514 128.21C109.514 128.777 109.401 129.28 109.174 129.72C108.954 130.153 108.651 130.49 108.264 130.73C107.884 130.97 107.458 131.09 106.984 131.09C106.578 131.09 106.218 131.007 105.904 130.84C105.598 130.673 105.348 130.463 105.154 130.21V133.64H103.754V125.46H105.154V126.26ZM108.084 128.21C108.084 127.877 108.014 127.59 107.874 127.35C107.741 127.103 107.561 126.917 107.334 126.79C107.114 126.663 106.874 126.6 106.614 126.6C106.361 126.6 106.121 126.667 105.894 126.8C105.674 126.927 105.494 127.113 105.354 127.36C105.221 127.607 105.154 127.897 105.154 128.23C105.154 128.563 105.221 128.853 105.354 129.1C105.494 129.347 105.674 129.537 105.894 129.67C106.121 129.797 106.361 129.86 106.614 129.86C106.874 129.86 107.114 129.793 107.334 129.66C107.561 129.527 107.741 129.337 107.874 129.09C108.014 128.843 108.084 128.55 108.084 128.21ZM111.932 126.26C112.112 126.007 112.358 125.797 112.672 125.63C112.992 125.457 113.355 125.37 113.762 125.37C114.235 125.37 114.662 125.487 115.042 125.72C115.428 125.953 115.732 126.287 115.952 126.72C116.178 127.147 116.292 127.643 116.292 128.21C116.292 128.777 116.178 129.28 115.952 129.72C115.732 130.153 115.428 130.49 115.042 130.73C114.662 130.97 114.235 131.09 113.762 131.09C113.355 131.09 112.995 131.007 112.682 130.84C112.375 130.673 112.125 130.463 111.932 130.21V133.64H110.532V125.46H111.932V126.26ZM114.862 128.21C114.862 127.877 114.792 127.59 114.652 127.35C114.518 127.103 114.338 126.917 114.112 126.79C113.892 126.663 113.652 126.6 113.392 126.6C113.138 126.6 112.898 126.667 112.672 126.8C112.452 126.927 112.272 127.113 112.132 127.36C111.998 127.607 111.932 127.897 111.932 128.23C111.932 128.563 111.998 128.853 112.132 129.1C112.272 129.347 112.452 129.537 112.672 129.67C112.898 129.797 113.138 129.86 113.392 129.86C113.652 129.86 113.892 129.793 114.112 129.66C114.338 129.527 114.518 129.337 114.652 129.09C114.792 128.843 114.862 128.55 114.862 128.21ZM119.429 131.09C118.976 131.09 118.569 131.01 118.209 130.85C117.849 130.683 117.562 130.46 117.349 130.18C117.142 129.9 117.029 129.59 117.009 129.25H118.419C118.446 129.463 118.549 129.64 118.729 129.78C118.916 129.92 119.146 129.99 119.419 129.99C119.686 129.99 119.892 129.937 120.039 129.83C120.192 129.723 120.269 129.587 120.269 129.42C120.269 129.24 120.176 129.107 119.989 129.02C119.809 128.927 119.519 128.827 119.119 128.72C118.706 128.62 118.366 128.517 118.099 128.41C117.839 128.303 117.612 128.14 117.419 127.92C117.232 127.7 117.139 127.403 117.139 127.03C117.139 126.723 117.226 126.443 117.399 126.19C117.579 125.937 117.832 125.737 118.159 125.59C118.492 125.443 118.882 125.37 119.329 125.37C119.989 125.37 120.516 125.537 120.909 125.87C121.302 126.197 121.519 126.64 121.559 127.2H120.219C120.199 126.98 120.106 126.807 119.939 126.68C119.779 126.547 119.562 126.48 119.289 126.48C119.036 126.48 118.839 126.527 118.699 126.62C118.566 126.713 118.499 126.843 118.499 127.01C118.499 127.197 118.592 127.34 118.779 127.44C118.966 127.533 119.256 127.63 119.649 127.73C120.049 127.83 120.379 127.933 120.639 128.04C120.899 128.147 121.122 128.313 121.309 128.54C121.502 128.76 121.602 129.053 121.609 129.42C121.609 129.74 121.519 130.027 121.339 130.28C121.166 130.533 120.912 130.733 120.579 130.88C120.252 131.02 119.869 131.09 119.429 131.09Z" fill="#6D5A8E"/>
<path d="M207.36 105V103.71H209.77V111H208.33V105H207.36ZM216.053 104.92H212.813V106.63C212.953 106.457 213.153 106.317 213.413 106.21C213.673 106.097 213.95 106.04 214.243 106.04C214.776 106.04 215.213 106.157 215.553 106.39C215.893 106.623 216.14 106.923 216.293 107.29C216.446 107.65 216.523 108.037 216.523 108.45C216.523 109.217 216.303 109.833 215.863 110.3C215.43 110.767 214.81 111 214.003 111C213.243 111 212.636 110.81 212.183 110.43C211.73 110.05 211.473 109.553 211.413 108.94H212.773C212.833 109.207 212.966 109.42 213.173 109.58C213.386 109.74 213.656 109.82 213.983 109.82C214.376 109.82 214.673 109.697 214.873 109.45C215.073 109.203 215.173 108.877 215.173 108.47C215.173 108.057 215.07 107.743 214.863 107.53C214.663 107.31 214.366 107.2 213.973 107.2C213.693 107.2 213.46 107.27 213.273 107.41C213.086 107.55 212.953 107.737 212.873 107.97H211.533V103.69H216.053V104.92ZM217.589 107.26C217.589 106.107 217.795 105.203 218.209 104.55C218.629 103.897 219.322 103.57 220.289 103.57C221.255 103.57 221.945 103.897 222.359 104.55C222.779 105.203 222.989 106.107 222.989 107.26C222.989 108.42 222.779 109.33 222.359 109.99C221.945 110.65 221.255 110.98 220.289 110.98C219.322 110.98 218.629 110.65 218.209 109.99C217.795 109.33 217.589 108.42 217.589 107.26ZM221.609 107.26C221.609 106.767 221.575 106.353 221.509 106.02C221.449 105.68 221.322 105.403 221.129 105.19C220.942 104.977 220.662 104.87 220.289 104.87C219.915 104.87 219.632 104.977 219.439 105.19C219.252 105.403 219.125 105.68 219.059 106.02C218.999 106.353 218.969 106.767 218.969 107.26C218.969 107.767 218.999 108.193 219.059 108.54C219.119 108.88 219.245 109.157 219.439 109.37C219.632 109.577 219.915 109.68 220.289 109.68C220.662 109.68 220.945 109.577 221.139 109.37C221.332 109.157 221.459 108.88 221.519 108.54C221.579 108.193 221.609 107.767 221.609 107.26Z" fill="#6D5A8E"/>
<path d="M207.55 125.63C207.583 124.963 207.817 124.45 208.25 124.09C208.69 123.723 209.267 123.54 209.98 123.54C210.467 123.54 210.883 123.627 211.23 123.8C211.577 123.967 211.837 124.197 212.01 124.49C212.19 124.777 212.28 125.103 212.28 125.47C212.28 125.89 212.17 126.247 211.95 126.54C211.737 126.827 211.48 127.02 211.18 127.12V127.16C211.567 127.28 211.867 127.493 212.08 127.8C212.3 128.107 212.41 128.5 212.41 128.98C212.41 129.38 212.317 129.737 212.13 130.05C211.95 130.363 211.68 130.61 211.32 130.79C210.967 130.963 210.54 131.05 210.04 131.05C209.287 131.05 208.673 130.86 208.2 130.48C207.727 130.1 207.477 129.54 207.45 128.8H208.81C208.823 129.127 208.933 129.39 209.14 129.59C209.353 129.783 209.643 129.88 210.01 129.88C210.35 129.88 210.61 129.787 210.79 129.6C210.977 129.407 211.07 129.16 211.07 128.86C211.07 128.46 210.943 128.173 210.69 128C210.437 127.827 210.043 127.74 209.51 127.74H209.22V126.59H209.51C210.457 126.59 210.93 126.273 210.93 125.64C210.93 125.353 210.843 125.13 210.67 124.97C210.503 124.81 210.26 124.73 209.94 124.73C209.627 124.73 209.383 124.817 209.21 124.99C209.043 125.157 208.947 125.37 208.92 125.63H207.55ZM218.416 124.92H215.176V126.63C215.316 126.457 215.516 126.317 215.776 126.21C216.036 126.097 216.313 126.04 216.606 126.04C217.14 126.04 217.576 126.157 217.916 126.39C218.256 126.623 218.503 126.923 218.656 127.29C218.81 127.65 218.886 128.037 218.886 128.45C218.886 129.217 218.666 129.833 218.226 130.3C217.793 130.767 217.173 131 216.366 131C215.606 131 215 130.81 214.546 130.43C214.093 130.05 213.836 129.553 213.776 128.94H215.136C215.196 129.207 215.33 129.42 215.536 129.58C215.75 129.74 216.02 129.82 216.346 129.82C216.74 129.82 217.036 129.697 217.236 129.45C217.436 129.203 217.536 128.877 217.536 128.47C217.536 128.057 217.433 127.743 217.226 127.53C217.026 127.31 216.73 127.2 216.336 127.2C216.056 127.2 215.823 127.27 215.636 127.41C215.45 127.55 215.316 127.737 215.236 127.97H213.896V123.69H218.416V124.92Z" fill="#6D5A8E"/>
<rect x="1" y="1" width="248" height="148" rx="9" stroke="#6D5A8E" stroke-width="2"/>
</svg>
