<svg width="250" height="150" viewBox="0 0 250 150" fill="none" xmlns="http://www.w3.org/2000/svg">
<rect x="1" y="1" width="248" height="148" rx="9" fill="white"/>
<path d="M14.444 20.4C14.444 19.792 14.62 19.316 14.972 18.972C15.332 18.628 15.792 18.456 16.352 18.456C16.912 18.456 17.368 18.628 17.72 18.972C18.08 19.316 18.26 19.792 18.26 20.4C18.26 21.016 18.08 21.496 17.72 21.84C17.368 22.184 16.912 22.356 16.352 22.356C15.792 22.356 15.332 22.184 14.972 21.84C14.62 21.496 14.444 21.016 14.444 20.4ZM22.148 18.6L17.432 27H15.8L20.504 18.6H22.148ZM16.34 19.464C15.9 19.464 15.68 19.776 15.68 20.4C15.68 21.032 15.9 21.348 16.34 21.348C16.556 21.348 16.724 21.272 16.844 21.12C16.964 20.96 17.024 20.72 17.024 20.4C17.024 19.776 16.796 19.464 16.34 19.464ZM19.712 25.188C19.712 24.572 19.888 24.096 20.24 23.76C20.6 23.416 21.06 23.244 21.62 23.244C22.18 23.244 22.632 23.416 22.976 23.76C23.328 24.096 23.504 24.572 23.504 25.188C23.504 25.804 23.328 26.284 22.976 26.628C22.632 26.972 22.18 27.144 21.62 27.144C21.052 27.144 20.592 26.972 20.24 26.628C19.888 26.284 19.712 25.804 19.712 25.188ZM21.608 24.252C21.152 24.252 20.924 24.564 20.924 25.188C20.924 25.82 21.152 26.136 21.608 26.136C22.056 26.136 22.28 25.82 22.28 25.188C22.28 24.564 22.056 24.252 21.608 24.252ZM32.3886 22.704C32.8606 22.792 33.2486 23.028 33.5526 23.412C33.8566 23.796 34.0086 24.236 34.0086 24.732C34.0086 25.18 33.8966 25.576 33.6726 25.92C33.4566 26.256 33.1406 26.52 32.7246 26.712C32.3086 26.904 31.8166 27 31.2486 27H27.6366V18.624H31.0926C31.6606 18.624 32.1486 18.716 32.5566 18.9C32.9726 19.084 33.2846 19.34 33.4926 19.668C33.7086 19.996 33.8166 20.368 33.8166 20.784C33.8166 21.272 33.6846 21.68 33.4206 22.008C33.1646 22.336 32.8206 22.568 32.3886 22.704ZM29.3166 22.08H30.8526C31.2526 22.08 31.5606 21.992 31.7766 21.816C31.9926 21.632 32.1006 21.372 32.1006 21.036C32.1006 20.7 31.9926 20.44 31.7766 20.256C31.5606 20.072 31.2526 19.98 30.8526 19.98H29.3166V22.08ZM31.0086 25.632C31.4166 25.632 31.7326 25.536 31.9566 25.344C32.1886 25.152 32.3046 24.88 32.3046 24.528C32.3046 24.168 32.1846 23.888 31.9446 23.688C31.7046 23.48 31.3806 23.376 30.9726 23.376H29.3166V25.632H31.0086ZM41.6235 20.352V27H39.9315V26.16C39.7155 26.448 39.4315 26.676 39.0795 26.844C38.7355 27.004 38.3595 27.084 37.9515 27.084C37.4315 27.084 36.9715 26.976 36.5715 26.76C36.1715 26.536 35.8555 26.212 35.6235 25.788C35.3995 25.356 35.2875 24.844 35.2875 24.252V20.352H36.9675V24.012C36.9675 24.54 37.0995 24.948 37.3635 25.236C37.6275 25.516 37.9875 25.656 38.4435 25.656C38.9075 25.656 39.2715 25.516 39.5355 25.236C39.7995 24.948 39.9315 24.54 39.9315 24.012V20.352H41.6235ZM42.8491 23.652C42.8491 22.98 42.9811 22.384 43.2451 21.864C43.5171 21.344 43.8851 20.944 44.3491 20.664C44.8131 20.384 45.3291 20.244 45.8971 20.244C46.3291 20.244 46.7411 20.34 47.1331 20.532C47.5251 20.716 47.8371 20.964 48.0691 21.276V18.12H49.7731V27H48.0691V26.016C47.8611 26.344 47.5691 26.608 47.1931 26.808C46.8171 27.008 46.3811 27.108 45.8851 27.108C45.3251 27.108 44.8131 26.964 44.3491 26.676C43.8851 26.388 43.5171 25.984 43.2451 25.464C42.9811 24.936 42.8491 24.332 42.8491 23.652ZM48.0811 23.676C48.0811 23.268 48.0011 22.92 47.8411 22.632C47.6811 22.336 47.4651 22.112 47.1931 21.96C46.9211 21.8 46.6291 21.72 46.3171 21.72C46.0051 21.72 45.7171 21.796 45.4531 21.948C45.1891 22.1 44.9731 22.324 44.8051 22.62C44.6451 22.908 44.5651 23.252 44.5651 23.652C44.5651 24.052 44.6451 24.404 44.8051 24.708C44.9731 25.004 45.1891 25.232 45.4531 25.392C45.7251 25.552 46.0131 25.632 46.3171 25.632C46.6291 25.632 46.9211 25.556 47.1931 25.404C47.4651 25.244 47.6811 25.02 47.8411 24.732C48.0011 24.436 48.0811 24.084 48.0811 23.676ZM54.0179 20.244C54.5139 20.244 54.9499 20.344 55.3259 20.544C55.7019 20.736 55.9979 20.988 56.2139 21.3V20.352H57.9059V27.048C57.9059 27.664 57.7819 28.212 57.5339 28.692C57.2859 29.18 56.9139 29.564 56.4179 29.844C55.9219 30.132 55.3219 30.276 54.6179 30.276C53.6739 30.276 52.8979 30.056 52.2899 29.616C51.6899 29.176 51.3499 28.576 51.2699 27.816H52.9379C53.0259 28.12 53.2139 28.36 53.5019 28.536C53.7979 28.72 54.1539 28.812 54.5699 28.812C55.0579 28.812 55.4539 28.664 55.7579 28.368C56.0619 28.08 56.2139 27.64 56.2139 27.048V26.016C55.9979 26.328 55.6979 26.588 55.3139 26.796C54.9379 27.004 54.5059 27.108 54.0179 27.108C53.4579 27.108 52.9459 26.964 52.4819 26.676C52.0179 26.388 51.6499 25.984 51.3779 25.464C51.1139 24.936 50.9819 24.332 50.9819 23.652C50.9819 22.98 51.1139 22.384 51.3779 21.864C51.6499 21.344 52.0139 20.944 52.4699 20.664C52.9339 20.384 53.4499 20.244 54.0179 20.244ZM56.2139 23.676C56.2139 23.268 56.1339 22.92 55.9739 22.632C55.8139 22.336 55.5979 22.112 55.3259 21.96C55.0539 21.8 54.7619 21.72 54.4499 21.72C54.1379 21.72 53.8499 21.796 53.5859 21.948C53.3219 22.1 53.1059 22.324 52.9379 22.62C52.7779 22.908 52.6979 23.252 52.6979 23.652C52.6979 24.052 52.7779 24.404 52.9379 24.708C53.1059 25.004 53.3219 25.232 53.5859 25.392C53.8579 25.552 54.1459 25.632 54.4499 25.632C54.7619 25.632 55.0539 25.556 55.3259 25.404C55.5979 25.244 55.8139 25.02 55.9739 24.732C56.1339 24.436 56.2139 24.084 56.2139 23.676ZM65.7268 23.532C65.7268 23.772 65.7108 23.988 65.6788 24.18H60.8188C60.8588 24.66 61.0268 25.036 61.3228 25.308C61.6188 25.58 61.9828 25.716 62.4148 25.716C63.0388 25.716 63.4828 25.448 63.7468 24.912H65.5588C65.3668 25.552 64.9988 26.08 64.4548 26.496C63.9108 26.904 63.2428 27.108 62.4508 27.108C61.8108 27.108 61.2348 26.968 60.7228 26.688C60.2188 26.4 59.8228 25.996 59.5348 25.476C59.2548 24.956 59.1147 24.356 59.1147 23.676C59.1147 22.988 59.2548 22.384 59.5348 21.864C59.8148 21.344 60.2068 20.944 60.7108 20.664C61.2148 20.384 61.7948 20.244 62.4508 20.244C63.0828 20.244 63.6468 20.38 64.1428 20.652C64.6468 20.924 65.0348 21.312 65.3068 21.816C65.5868 22.312 65.7268 22.884 65.7268 23.532ZM63.9868 23.052C63.9788 22.62 63.8228 22.276 63.5188 22.02C63.2148 21.756 62.8428 21.624 62.4028 21.624C61.9868 21.624 61.6348 21.752 61.3468 22.008C61.0668 22.256 60.8948 22.604 60.8308 23.052H63.9868ZM68.909 21.732V24.948C68.909 25.172 68.961 25.336 69.065 25.44C69.177 25.536 69.361 25.584 69.617 25.584H70.397V27H69.341C67.925 27 67.217 26.312 67.217 24.936V21.732H66.425V20.352H67.217V18.708H68.909V20.352H70.397V21.732H68.909ZM76.1207 18.624V23.808C76.1207 24.376 76.2687 24.812 76.5647 25.116C76.8607 25.412 77.2767 25.56 77.8127 25.56C78.3567 25.56 78.7767 25.412 79.0727 25.116C79.3687 24.812 79.5167 24.376 79.5167 23.808V18.624H81.2087V23.796C81.2087 24.508 81.0527 25.112 80.7407 25.608C80.4367 26.096 80.0247 26.464 79.5047 26.712C78.9927 26.96 78.4207 27.084 77.7887 27.084C77.1647 27.084 76.5967 26.96 76.0847 26.712C75.5807 26.464 75.1807 26.096 74.8847 25.608C74.5887 25.112 74.4407 24.508 74.4407 23.796V18.624H76.1207ZM84.7879 21.732V24.948C84.7879 25.172 84.8399 25.336 84.9439 25.44C85.0559 25.536 85.2399 25.584 85.4959 25.584H86.2759V27H85.2199C83.8039 27 83.0959 26.312 83.0959 24.936V21.732H82.3039V20.352H83.0959V18.708H84.7879V20.352H86.2759V21.732H84.7879ZM88.3363 19.56C88.0403 19.56 87.7923 19.468 87.5923 19.284C87.4003 19.092 87.3043 18.856 87.3043 18.576C87.3043 18.296 87.4003 18.064 87.5923 17.88C87.7923 17.688 88.0403 17.592 88.3363 17.592C88.6323 17.592 88.8763 17.688 89.0683 17.88C89.2683 18.064 89.3683 18.296 89.3683 18.576C89.3683 18.856 89.2683 19.092 89.0683 19.284C88.8763 19.468 88.6323 19.56 88.3363 19.56ZM89.1643 20.352V27H87.4843V20.352H89.1643ZM92.5041 18.12V27H90.8241V18.12H92.5041ZM95.0159 19.56C94.7199 19.56 94.4719 19.468 94.2719 19.284C94.0799 19.092 93.9839 18.856 93.9839 18.576C93.9839 18.296 94.0799 18.064 94.2719 17.88C94.4719 17.688 94.7199 17.592 95.0159 17.592C95.3119 17.592 95.5559 17.688 95.7479 17.88C95.9479 18.064 96.0479 18.296 96.0479 18.576C96.0479 18.856 95.9479 19.092 95.7479 19.284C95.5559 19.468 95.3119 19.56 95.0159 19.56ZM95.8439 20.352V27H94.1639V20.352H95.8439ZM99.0398 25.62H102.004V27H97.1318V25.644L100.036 21.732H97.1438V20.352H101.968V21.708L99.0398 25.62ZM102.873 23.652C102.873 22.98 103.005 22.384 103.269 21.864C103.541 21.344 103.905 20.944 104.361 20.664C104.825 20.384 105.341 20.244 105.909 20.244C106.405 20.244 106.837 20.344 107.205 20.544C107.581 20.744 107.881 20.996 108.105 21.3V20.352H109.797V27H108.105V26.028C107.889 26.34 107.589 26.6 107.205 26.808C106.829 27.008 106.393 27.108 105.897 27.108C105.337 27.108 104.825 26.964 104.361 26.676C103.905 26.388 103.541 25.984 103.269 25.464C103.005 24.936 102.873 24.332 102.873 23.652ZM108.105 23.676C108.105 23.268 108.025 22.92 107.865 22.632C107.705 22.336 107.489 22.112 107.217 21.96C106.945 21.8 106.653 21.72 106.341 21.72C106.029 21.72 105.741 21.796 105.477 21.948C105.213 22.1 104.997 22.324 104.829 22.62C104.669 22.908 104.589 23.252 104.589 23.652C104.589 24.052 104.669 24.404 104.829 24.708C104.997 25.004 105.213 25.232 105.477 25.392C105.749 25.552 106.037 25.632 106.341 25.632C106.653 25.632 106.945 25.556 107.217 25.404C107.489 25.244 107.705 25.02 107.865 24.732C108.025 24.436 108.105 24.084 108.105 23.676ZM113.393 21.732V24.948C113.393 25.172 113.445 25.336 113.549 25.44C113.661 25.536 113.845 25.584 114.101 25.584H114.881V27H113.825C112.409 27 111.701 26.312 111.701 24.936V21.732H110.909V20.352H111.701V18.708H113.393V20.352H114.881V21.732H113.393ZM116.942 19.56C116.646 19.56 116.398 19.468 116.198 19.284C116.006 19.092 115.91 18.856 115.91 18.576C115.91 18.296 116.006 18.064 116.198 17.88C116.398 17.688 116.646 17.592 116.942 17.592C117.238 17.592 117.482 17.688 117.674 17.88C117.874 18.064 117.974 18.296 117.974 18.576C117.974 18.856 117.874 19.092 117.674 19.284C117.482 19.468 117.238 19.56 116.942 19.56ZM117.77 20.352V27H116.09V20.352H117.77ZM122.382 27.108C121.742 27.108 121.166 26.968 120.654 26.688C120.142 26.4 119.738 25.996 119.442 25.476C119.154 24.956 119.01 24.356 119.01 23.676C119.01 22.996 119.158 22.396 119.454 21.876C119.758 21.356 120.17 20.956 120.69 20.676C121.21 20.388 121.79 20.244 122.43 20.244C123.07 20.244 123.65 20.388 124.17 20.676C124.69 20.956 125.098 21.356 125.394 21.876C125.698 22.396 125.85 22.996 125.85 23.676C125.85 24.356 125.694 24.956 125.382 25.476C125.078 25.996 124.662 26.4 124.134 26.688C123.614 26.968 123.03 27.108 122.382 27.108ZM122.382 25.644C122.686 25.644 122.97 25.572 123.234 25.428C123.506 25.276 123.722 25.052 123.882 24.756C124.042 24.46 124.122 24.1 124.122 23.676C124.122 23.044 123.954 22.56 123.618 22.224C123.29 21.88 122.886 21.708 122.406 21.708C121.926 21.708 121.522 21.88 121.194 22.224C120.874 22.56 120.714 23.044 120.714 23.676C120.714 24.308 120.87 24.796 121.182 25.14C121.502 25.476 121.902 25.644 122.382 25.644ZM130.766 20.256C131.558 20.256 132.198 20.508 132.686 21.012C133.174 21.508 133.418 22.204 133.418 23.1V27H131.738V23.328C131.738 22.8 131.606 22.396 131.342 22.116C131.078 21.828 130.718 21.684 130.262 21.684C129.798 21.684 129.43 21.828 129.158 22.116C128.894 22.396 128.762 22.8 128.762 23.328V27H127.082V20.352H128.762V21.18C128.986 20.892 129.27 20.668 129.614 20.508C129.966 20.34 130.35 20.256 130.766 20.256Z" fill="#6D5A8E"/>
<path d="M228 16C224.134 16 221 19.1344 221 23C221 26.8656 224.134 30 228 30C231.866 30 235 26.8656 235 23C235 19.1344 231.866 16 228 16ZM228.5 26.375C228.5 26.4438 228.444 26.5 228.375 26.5H227.625C227.556 26.5 227.5 26.4438 227.5 26.375V22.125C227.5 22.0562 227.556 22 227.625 22H228.375C228.444 22 228.5 22.0562 228.5 22.125V26.375ZM228 21C227.804 20.996 227.617 20.9152 227.479 20.775C227.342 20.6348 227.265 20.4463 227.265 20.25C227.265 20.0537 227.342 19.8652 227.479 19.725C227.617 19.5848 227.804 19.504 228 19.5C228.196 19.504 228.383 19.5848 228.521 19.725C228.658 19.8652 228.735 20.0537 228.735 20.25C228.735 20.4463 228.658 20.6348 228.521 20.775C228.383 20.9152 228.196 20.996 228 21Z" fill="#6D5A8E"/>
<rect x="70" y="57" width="50" height="50" rx="25" fill="#6D5A8E" fill-opacity="0.2"/>
<path d="M96.3102 80.1492C95.7702 80.0142 95.2302 79.7442 94.8252 79.3392C94.4202 79.2042 94.2852 78.7992 94.2852 78.5292C94.2852 78.2592 94.4202 77.8542 94.6902 77.7192C95.0952 77.4492 95.5002 77.1792 95.9052 77.3142C96.7152 77.3142 97.3902 77.7192 97.7952 78.2592L99.0102 76.6392C98.6052 76.2342 98.2002 75.9642 97.7952 75.6942C97.3902 75.4242 96.8502 75.2892 96.3102 75.2892V73.3992H94.6902V75.2892C94.0152 75.4242 93.3402 75.8292 92.8002 76.3692C92.2602 77.0442 91.8552 77.8542 91.9902 78.6642C91.9902 79.4742 92.2602 80.2842 92.8002 80.8242C93.4752 81.4992 94.4202 81.9042 95.2302 82.3092C95.6352 82.4442 96.1752 82.7142 96.5802 82.9842C96.8502 83.2542 96.9852 83.6592 96.9852 84.0642C96.9852 84.4692 96.8502 84.8742 96.5802 85.2792C96.1752 85.6842 95.6352 85.8192 95.2302 85.8192C94.6902 85.8192 94.0152 85.6842 93.6102 85.2792C93.2052 85.0092 92.8002 84.6042 92.5302 84.1992L91.1802 85.6842C91.5852 86.2242 91.9902 86.6292 92.5302 87.0342C93.2052 87.4392 94.0152 87.8442 94.8252 87.8442V89.5992H96.3102V87.5742C97.1202 87.4392 97.7952 87.0342 98.3352 86.4942C99.0102 85.8192 99.4152 84.7392 99.4152 83.7942C99.4152 82.9842 99.1452 82.0392 98.4702 81.4992C97.7952 80.8242 97.1202 80.4192 96.3102 80.1492V80.1492ZM95.5002 70.6992C89.5602 70.6992 84.7002 75.5592 84.7002 81.4992C84.7002 87.4392 89.5602 92.2992 95.5002 92.2992C101.44 92.2992 106.3 87.4392 106.3 81.4992C106.3 75.5592 101.44 70.6992 95.5002 70.6992ZM95.5002 90.8142C90.3702 90.8142 86.1852 86.6292 86.1852 81.4992C86.1852 76.3692 90.3702 72.1842 95.5002 72.1842C100.63 72.1842 104.815 76.3692 104.815 81.4992C104.815 86.6292 100.63 90.8142 95.5002 90.8142V90.8142Z" fill="#6D5A8E"/>
<path d="M138.85 80.508C137.383 79.7453 136.65 78.5647 136.65 76.966C136.65 76.174 136.848 75.4553 137.244 74.81C137.655 74.15 138.263 73.6293 139.07 73.248C139.891 72.852 140.889 72.654 142.062 72.654C143.235 72.654 144.225 72.852 145.032 73.248C145.853 73.6293 146.462 74.15 146.858 74.81C147.269 75.4553 147.474 76.174 147.474 76.966C147.474 77.7727 147.276 78.484 146.88 79.1C146.484 79.7013 145.956 80.1707 145.296 80.508C146.103 80.86 146.733 81.3733 147.188 82.048C147.643 82.7227 147.87 83.522 147.87 84.446C147.87 85.4433 147.613 86.316 147.1 87.064C146.601 87.7973 145.912 88.362 145.032 88.758C144.152 89.154 143.162 89.352 142.062 89.352C140.962 89.352 139.972 89.154 139.092 88.758C138.227 88.362 137.537 87.7973 137.024 87.064C136.525 86.316 136.276 85.4433 136.276 84.446C136.276 83.522 136.503 82.7227 136.958 82.048C137.413 81.3587 138.043 80.8453 138.85 80.508ZM144.482 77.406C144.482 76.6873 144.262 76.13 143.822 75.734C143.397 75.338 142.81 75.14 142.062 75.14C141.329 75.14 140.742 75.338 140.302 75.734C139.877 76.13 139.664 76.6947 139.664 77.428C139.664 78.088 139.884 78.616 140.324 79.012C140.779 79.408 141.358 79.606 142.062 79.606C142.766 79.606 143.345 79.408 143.8 79.012C144.255 78.6013 144.482 78.066 144.482 77.406ZM142.062 81.85C141.226 81.85 140.544 82.0627 140.016 82.488C139.503 82.9133 139.246 83.522 139.246 84.314C139.246 85.0473 139.495 85.6487 139.994 86.118C140.507 86.5727 141.197 86.8 142.062 86.8C142.927 86.8 143.609 86.5653 144.108 86.096C144.607 85.6267 144.856 85.0327 144.856 84.314C144.856 83.5367 144.599 82.9353 144.086 82.51C143.573 82.07 142.898 81.85 142.062 81.85ZM160.511 75.294L154.659 89H151.535L157.431 75.646H149.907V73.006H160.511V75.294ZM162.003 76.9C162.003 75.7853 162.326 74.9127 162.971 74.282C163.631 73.6513 164.475 73.336 165.501 73.336C166.528 73.336 167.364 73.6513 168.009 74.282C168.669 74.9127 168.999 75.7853 168.999 76.9C168.999 78.0293 168.669 78.9093 168.009 79.54C167.364 80.1707 166.528 80.486 165.501 80.486C164.475 80.486 163.631 80.1707 162.971 79.54C162.326 78.9093 162.003 78.0293 162.003 76.9ZM176.127 73.6L167.481 89H164.489L173.113 73.6H176.127ZM165.479 75.184C164.673 75.184 164.269 75.756 164.269 76.9C164.269 78.0587 164.673 78.638 165.479 78.638C165.875 78.638 166.183 78.4987 166.403 78.22C166.623 77.9267 166.733 77.4867 166.733 76.9C166.733 75.756 166.315 75.184 165.479 75.184ZM171.661 85.678C171.661 84.5487 171.984 83.676 172.629 83.06C173.289 82.4293 174.133 82.114 175.159 82.114C176.186 82.114 177.015 82.4293 177.645 83.06C178.291 83.676 178.613 84.5487 178.613 85.678C178.613 86.8073 178.291 87.6873 177.645 88.318C177.015 88.9487 176.186 89.264 175.159 89.264C174.118 89.264 173.275 88.9487 172.629 88.318C171.984 87.6873 171.661 86.8073 171.661 85.678ZM175.137 83.962C174.301 83.962 173.883 84.534 173.883 85.678C173.883 86.8367 174.301 87.416 175.137 87.416C175.959 87.416 176.369 86.8367 176.369 85.678C176.369 84.534 175.959 83.962 175.137 83.962Z" fill="#6D5A8E"/>
<rect x="1" y="1" width="248" height="148" rx="9" stroke="#6D5A8E" stroke-width="2"/>
</svg>
