<svg width="250" height="150" viewBox="0 0 250 150" fill="none" xmlns="http://www.w3.org/2000/svg">
<rect x="1" y="1" width="248" height="148" rx="9" fill="white"/>
<path d="M20.528 18.624V19.98H18.296V27H16.616V19.98H14.384V18.624H20.528ZM24.7058 27.108C24.0658 27.108 23.4898 26.968 22.9778 26.688C22.4658 26.4 22.0618 25.996 21.7658 25.476C21.4778 24.956 21.3338 24.356 21.3338 23.676C21.3338 22.996 21.4818 22.396 21.7778 21.876C22.0818 21.356 22.4938 20.956 23.0138 20.676C23.5338 20.388 24.1138 20.244 24.7538 20.244C25.3938 20.244 25.9738 20.388 26.4938 20.676C27.0138 20.956 27.4218 21.356 27.7178 21.876C28.0218 22.396 28.1738 22.996 28.1738 23.676C28.1738 24.356 28.0178 24.956 27.7058 25.476C27.4018 25.996 26.9858 26.4 26.4578 26.688C25.9378 26.968 25.3538 27.108 24.7058 27.108ZM24.7058 25.644C25.0098 25.644 25.2938 25.572 25.5578 25.428C25.8298 25.276 26.0458 25.052 26.2058 24.756C26.3658 24.46 26.4458 24.1 26.4458 23.676C26.4458 23.044 26.2778 22.56 25.9418 22.224C25.6138 21.88 25.2098 21.708 24.7298 21.708C24.2498 21.708 23.8458 21.88 23.5178 22.224C23.1978 22.56 23.0378 23.044 23.0378 23.676C23.0378 24.308 23.1938 24.796 23.5058 25.14C23.8258 25.476 24.2258 25.644 24.7058 25.644ZM31.3621 21.732V24.948C31.3621 25.172 31.4141 25.336 31.5181 25.44C31.6301 25.536 31.8141 25.584 32.0701 25.584H32.8501V27H31.7941C30.3781 27 29.6701 26.312 29.6701 24.936V21.732H28.8781V20.352H29.6701V18.708H31.3621V20.352H32.8501V21.732H31.3621ZM33.6265 23.652C33.6265 22.98 33.7585 22.384 34.0225 21.864C34.2945 21.344 34.6585 20.944 35.1145 20.664C35.5785 20.384 36.0945 20.244 36.6625 20.244C37.1585 20.244 37.5905 20.344 37.9585 20.544C38.3345 20.744 38.6345 20.996 38.8585 21.3V20.352H40.5505V27H38.8585V26.028C38.6425 26.34 38.3425 26.6 37.9585 26.808C37.5825 27.008 37.1465 27.108 36.6505 27.108C36.0905 27.108 35.5785 26.964 35.1145 26.676C34.6585 26.388 34.2945 25.984 34.0225 25.464C33.7585 24.936 33.6265 24.332 33.6265 23.652ZM38.8585 23.676C38.8585 23.268 38.7785 22.92 38.6185 22.632C38.4585 22.336 38.2425 22.112 37.9705 21.96C37.6985 21.8 37.4065 21.72 37.0945 21.72C36.7825 21.72 36.4945 21.796 36.2305 21.948C35.9665 22.1 35.7505 22.324 35.5825 22.62C35.4225 22.908 35.3425 23.252 35.3425 23.652C35.3425 24.052 35.4225 24.404 35.5825 24.708C35.7505 25.004 35.9665 25.232 36.2305 25.392C36.5025 25.552 36.7905 25.632 37.0945 25.632C37.4065 25.632 37.6985 25.556 37.9705 25.404C38.2425 25.244 38.4585 25.02 38.6185 24.732C38.7785 24.436 38.8585 24.084 38.8585 23.676ZM43.8713 18.12V27H42.1913V18.12H43.8713ZM50.0705 18.624V27H48.3905V18.624H50.0705ZM55.4143 20.256C56.2063 20.256 56.8463 20.508 57.3343 21.012C57.8223 21.508 58.0663 22.204 58.0663 23.1V27H56.3863V23.328C56.3863 22.8 56.2543 22.396 55.9903 22.116C55.7263 21.828 55.3663 21.684 54.9103 21.684C54.4463 21.684 54.0783 21.828 53.8063 22.116C53.5423 22.396 53.4103 22.8 53.4103 23.328V27H51.7303V20.352H53.4103V21.18C53.6343 20.892 53.9183 20.668 54.2623 20.508C54.6143 20.34 54.9983 20.256 55.4143 20.256ZM62.4359 25.452L64.1159 20.352H65.9039L63.4439 27H61.4039L58.9559 20.352H60.7559L62.4359 25.452ZM69.7995 27.108C69.1595 27.108 68.5835 26.968 68.0715 26.688C67.5595 26.4 67.1555 25.996 66.8595 25.476C66.5715 24.956 66.4275 24.356 66.4275 23.676C66.4275 22.996 66.5755 22.396 66.8715 21.876C67.1755 21.356 67.5875 20.956 68.1075 20.676C68.6275 20.388 69.2075 20.244 69.8475 20.244C70.4875 20.244 71.0675 20.388 71.5875 20.676C72.1075 20.956 72.5155 21.356 72.8115 21.876C73.1155 22.396 73.2675 22.996 73.2675 23.676C73.2675 24.356 73.1115 24.956 72.7995 25.476C72.4955 25.996 72.0795 26.4 71.5515 26.688C71.0315 26.968 70.4475 27.108 69.7995 27.108ZM69.7995 25.644C70.1035 25.644 70.3875 25.572 70.6515 25.428C70.9235 25.276 71.1395 25.052 71.2995 24.756C71.4595 24.46 71.5395 24.1 71.5395 23.676C71.5395 23.044 71.3715 22.56 71.0355 22.224C70.7075 21.88 70.3035 21.708 69.8235 21.708C69.3435 21.708 68.9395 21.88 68.6115 22.224C68.2915 22.56 68.1315 23.044 68.1315 23.676C68.1315 24.308 68.2875 24.796 68.5995 25.14C68.9195 25.476 69.3195 25.644 69.7995 25.644ZM75.3519 19.56C75.0559 19.56 74.8079 19.468 74.6079 19.284C74.4159 19.092 74.3199 18.856 74.3199 18.576C74.3199 18.296 74.4159 18.064 74.6079 17.88C74.8079 17.688 75.0559 17.592 75.3519 17.592C75.6479 17.592 75.8919 17.688 76.0839 17.88C76.2839 18.064 76.3839 18.296 76.3839 18.576C76.3839 18.856 76.2839 19.092 76.0839 19.284C75.8919 19.468 75.6479 19.56 75.3519 19.56ZM76.1799 20.352V27H74.4999V20.352H76.1799ZM77.4077 23.676C77.4077 22.988 77.5477 22.388 77.8277 21.876C78.1077 21.356 78.4957 20.956 78.9917 20.676C79.4877 20.388 80.0557 20.244 80.6957 20.244C81.5197 20.244 82.1997 20.452 82.7357 20.868C83.2797 21.276 83.6437 21.852 83.8277 22.596H82.0157C81.9197 22.308 81.7557 22.084 81.5237 21.924C81.2997 21.756 81.0197 21.672 80.6837 21.672C80.2037 21.672 79.8237 21.848 79.5437 22.2C79.2637 22.544 79.1237 23.036 79.1237 23.676C79.1237 24.308 79.2637 24.8 79.5437 25.152C79.8237 25.496 80.2037 25.668 80.6837 25.668C81.3637 25.668 81.8077 25.364 82.0157 24.756H83.8277C83.6437 25.476 83.2797 26.048 82.7357 26.472C82.1917 26.896 81.5117 27.108 80.6957 27.108C80.0557 27.108 79.4877 26.968 78.9917 26.688C78.4957 26.4 78.1077 26 77.8277 25.488C77.5477 24.968 77.4077 24.364 77.4077 23.676ZM91.2385 23.532C91.2385 23.772 91.2225 23.988 91.1905 24.18H86.3305C86.3705 24.66 86.5385 25.036 86.8345 25.308C87.1305 25.58 87.4945 25.716 87.9265 25.716C88.5505 25.716 88.9945 25.448 89.2585 24.912H91.0705C90.8785 25.552 90.5105 26.08 89.9665 26.496C89.4225 26.904 88.7545 27.108 87.9625 27.108C87.3225 27.108 86.7465 26.968 86.2345 26.688C85.7305 26.4 85.3345 25.996 85.0465 25.476C84.7665 24.956 84.6265 24.356 84.6265 23.676C84.6265 22.988 84.7665 22.384 85.0465 21.864C85.3265 21.344 85.7185 20.944 86.2225 20.664C86.7265 20.384 87.3065 20.244 87.9625 20.244C88.5945 20.244 89.1585 20.38 89.6545 20.652C90.1585 20.924 90.5465 21.312 90.8185 21.816C91.0985 22.312 91.2385 22.884 91.2385 23.532ZM89.4985 23.052C89.4905 22.62 89.3345 22.276 89.0305 22.02C88.7265 21.756 88.3545 21.624 87.9145 21.624C87.4985 21.624 87.1465 21.752 86.8585 22.008C86.5785 22.256 86.4065 22.604 86.3425 23.052H89.4985ZM104.456 18.624V27H102.776V21.552L100.532 27H99.2601L97.0041 21.552V27H95.3241V18.624H97.2321L99.8961 24.852L102.56 18.624H104.456ZM105.685 23.652C105.685 22.98 105.817 22.384 106.081 21.864C106.353 21.344 106.717 20.944 107.173 20.664C107.637 20.384 108.153 20.244 108.721 20.244C109.217 20.244 109.649 20.344 110.017 20.544C110.393 20.744 110.693 20.996 110.917 21.3V20.352H112.609V27H110.917V26.028C110.701 26.34 110.401 26.6 110.017 26.808C109.641 27.008 109.205 27.108 108.709 27.108C108.149 27.108 107.637 26.964 107.173 26.676C106.717 26.388 106.353 25.984 106.081 25.464C105.817 24.936 105.685 24.332 105.685 23.652ZM110.917 23.676C110.917 23.268 110.837 22.92 110.677 22.632C110.517 22.336 110.301 22.112 110.029 21.96C109.757 21.8 109.465 21.72 109.153 21.72C108.841 21.72 108.553 21.796 108.289 21.948C108.025 22.1 107.809 22.324 107.641 22.62C107.481 22.908 107.401 23.252 107.401 23.652C107.401 24.052 107.481 24.404 107.641 24.708C107.809 25.004 108.025 25.232 108.289 25.392C108.561 25.552 108.849 25.632 109.153 25.632C109.465 25.632 109.757 25.556 110.029 25.404C110.301 25.244 110.517 25.02 110.677 24.732C110.837 24.436 110.917 24.084 110.917 23.676ZM120.61 20.352L116.494 30.144H114.706L116.146 26.832L113.482 20.352H115.366L117.082 24.996L118.822 20.352H120.61ZM124.711 25.104C125.479 24.464 126.091 23.932 126.547 23.508C127.003 23.076 127.383 22.628 127.687 22.164C127.991 21.7 128.143 21.244 128.143 20.796C128.143 20.388 128.047 20.068 127.855 19.836C127.663 19.604 127.367 19.488 126.967 19.488C126.567 19.488 126.259 19.624 126.043 19.896C125.827 20.16 125.715 20.524 125.707 20.988H124.075C124.107 20.028 124.391 19.3 124.927 18.804C125.471 18.308 126.159 18.06 126.991 18.06C127.903 18.06 128.603 18.304 129.091 18.792C129.579 19.272 129.823 19.908 129.823 20.7C129.823 21.324 129.655 21.92 129.319 22.488C128.983 23.056 128.599 23.552 128.167 23.976C127.735 24.392 127.171 24.896 126.475 25.488H130.015V26.88H124.087V25.632L124.711 25.104ZM131.074 22.512C131.074 21.128 131.322 20.044 131.818 19.26C132.322 18.476 133.154 18.084 134.314 18.084C135.474 18.084 136.302 18.476 136.798 19.26C137.302 20.044 137.554 21.128 137.554 22.512C137.554 23.904 137.302 24.996 136.798 25.788C136.302 26.58 135.474 26.976 134.314 26.976C133.154 26.976 132.322 26.58 131.818 25.788C131.322 24.996 131.074 23.904 131.074 22.512ZM135.898 22.512C135.898 21.92 135.858 21.424 135.778 21.024C135.706 20.616 135.554 20.284 135.322 20.028C135.098 19.772 134.762 19.644 134.314 19.644C133.866 19.644 133.526 19.772 133.294 20.028C133.07 20.284 132.918 20.616 132.838 21.024C132.766 21.424 132.73 21.92 132.73 22.512C132.73 23.12 132.766 23.632 132.838 24.048C132.91 24.456 133.062 24.788 133.294 25.044C133.526 25.292 133.866 25.416 134.314 25.416C134.762 25.416 135.102 25.292 135.334 25.044C135.566 24.788 135.718 24.456 135.79 24.048C135.862 23.632 135.898 23.12 135.898 22.512ZM139.359 25.104C140.127 24.464 140.739 23.932 141.195 23.508C141.651 23.076 142.031 22.628 142.335 22.164C142.639 21.7 142.791 21.244 142.791 20.796C142.791 20.388 142.695 20.068 142.503 19.836C142.311 19.604 142.015 19.488 141.615 19.488C141.215 19.488 140.907 19.624 140.691 19.896C140.475 20.16 140.363 20.524 140.355 20.988H138.723C138.755 20.028 139.039 19.3 139.575 18.804C140.119 18.308 140.807 18.06 141.639 18.06C142.551 18.06 143.251 18.304 143.739 18.792C144.227 19.272 144.471 19.908 144.471 20.7C144.471 21.324 144.303 21.92 143.967 22.488C143.631 23.056 143.247 23.552 142.815 23.976C142.383 24.392 141.819 24.896 141.123 25.488H144.663V26.88H138.735V25.632L139.359 25.104ZM146.25 25.104C147.018 24.464 147.63 23.932 148.086 23.508C148.542 23.076 148.922 22.628 149.226 22.164C149.53 21.7 149.682 21.244 149.682 20.796C149.682 20.388 149.586 20.068 149.394 19.836C149.202 19.604 148.906 19.488 148.506 19.488C148.106 19.488 147.798 19.624 147.582 19.896C147.366 20.16 147.254 20.524 147.246 20.988H145.614C145.646 20.028 145.93 19.3 146.466 18.804C147.01 18.308 147.698 18.06 148.53 18.06C149.442 18.06 150.142 18.304 150.63 18.792C151.118 19.272 151.362 19.908 151.362 20.7C151.362 21.324 151.194 21.92 150.858 22.488C150.522 23.056 150.138 23.552 149.706 23.976C149.274 24.392 148.71 24.896 148.014 25.488H151.554V26.88H145.626V25.632L146.25 25.104Z" fill="#6D5A8E"/>
<path d="M228 16C224.134 16 221 19.1344 221 23C221 26.8656 224.134 30 228 30C231.866 30 235 26.8656 235 23C235 19.1344 231.866 16 228 16ZM228.5 26.375C228.5 26.4438 228.444 26.5 228.375 26.5H227.625C227.556 26.5 227.5 26.4438 227.5 26.375V22.125C227.5 22.0562 227.556 22 227.625 22H228.375C228.444 22 228.5 22.0562 228.5 22.125V26.375ZM228 21C227.804 20.996 227.617 20.9152 227.479 20.775C227.342 20.6348 227.265 20.4463 227.265 20.25C227.265 20.0537 227.342 19.8652 227.479 19.725C227.617 19.5848 227.804 19.504 228 19.5C228.196 19.504 228.383 19.5848 228.521 19.725C228.658 19.8652 228.735 20.0537 228.735 20.25C228.735 20.4463 228.658 20.6348 228.521 20.775C228.383 20.9152 228.196 20.996 228 21Z" fill="#6D5A8E"/>
<rect x="40" y="50" width="50" height="50" rx="25" fill="#6D5A8E" fill-opacity="0.2"/>
<path d="M75 67.75H68.6667V61L75 67.75ZM68.6667 69.4375H75V85.4688C75 86.8667 73.9367 88 72.625 88H58.375C57.0633 88 56 86.8662 56 85.4688V63.5312C56 62.1333 57.0633 61 58.375 61H67.0833L67.0835 67.75C67.0833 68.6834 67.7909 69.4375 68.6667 69.4375ZM59.1667 65.6406C59.1667 65.8716 59.3463 66.0625 59.5625 66.0625H63.5208C63.7385 66.0625 63.9167 65.8716 63.9167 65.6406V64.7969C63.9167 64.5664 63.7385 64.375 63.5208 64.375H59.5625C59.3463 64.375 59.1667 64.5664 59.1667 64.7969V65.6406ZM59.5625 69.4375H63.5208C63.7385 69.4375 63.9167 69.2477 63.9167 69.0156V68.1719C63.9167 67.9398 63.7385 67.75 63.5208 67.75H59.5625C59.3463 67.75 59.1667 67.9398 59.1667 68.1719V69.0156C59.1667 69.2477 59.3463 69.4375 59.5625 69.4375ZM65.7721 77.7062L65.4555 77.6219C64.3273 77.2527 64.3521 77.0365 64.3917 76.8467C64.4597 76.4347 65.2125 76.3342 65.8894 76.4446C66.1662 76.4891 66.4698 76.5929 66.7597 76.7C67.2738 76.8896 67.8399 76.5978 68.019 76.0493C68.1983 75.4987 67.9254 74.8976 67.4089 74.7061C67.0517 74.5751 66.7602 74.4911 66.4906 74.4281V74.0781C66.4906 73.4965 66.0476 73.0234 65.501 73.0234C64.9544 73.0234 64.5114 73.4964 64.5114 74.0781V74.3941C63.4021 74.6477 62.6203 75.3859 62.4422 76.4881C62.0757 78.7472 64.0844 79.3753 64.9419 79.6437L65.2294 79.7327C66.6782 80.1744 66.6544 80.3228 66.6109 80.5912C66.5429 81.0032 65.79 81.1054 65.1112 80.9933C64.7679 80.939 64.3289 80.7709 63.9405 80.6226L63.7194 80.5369C63.2043 80.3473 62.6393 80.6324 62.4567 81.1813C62.275 81.7303 62.5448 82.333 63.0603 82.5276L63.2714 82.6067C63.6553 82.7538 64.0819 82.9015 64.5114 83.0028V83.3594C64.5114 83.941 64.9543 84.4141 65.5009 84.4141C66.0475 84.4141 66.4905 83.9411 66.4905 83.3594V83.0296C67.5969 82.7768 68.3811 82.0524 68.5602 80.9503C68.9289 78.666 66.8755 78.0385 65.7721 77.7062Z" fill="#6D5A8E"/>
<path d="M117.474 77.578C117.474 78.3407 117.276 79.0593 116.88 79.734C116.499 80.394 115.927 80.944 115.164 81.384C114.416 81.8093 113.529 82.0587 112.502 82.132V83.914H111.094V82.11C109.627 81.978 108.447 81.538 107.552 80.79C106.657 80.0273 106.195 79.0007 106.166 77.71H109.466C109.554 78.766 110.097 79.404 111.094 79.624V75.422C110.038 75.158 109.187 74.894 108.542 74.63C107.897 74.366 107.339 73.9407 106.87 73.354C106.401 72.7673 106.166 71.968 106.166 70.956C106.166 69.68 106.621 68.6387 107.53 67.832C108.454 67.0253 109.642 66.5633 111.094 66.446V64.664H112.502V66.446C113.91 66.5633 115.032 66.9887 115.868 67.722C116.719 68.4553 117.195 69.4673 117.298 70.758H113.976C113.932 70.3327 113.778 69.966 113.514 69.658C113.265 69.3353 112.927 69.108 112.502 68.976V73.134C113.602 73.4127 114.467 73.684 115.098 73.948C115.743 74.1973 116.301 74.6153 116.77 75.202C117.239 75.774 117.474 76.566 117.474 77.578ZM109.378 70.802C109.378 71.286 109.525 71.682 109.818 71.99C110.111 72.2833 110.537 72.5253 111.094 72.716V68.91C110.566 68.9833 110.148 69.1813 109.84 69.504C109.532 69.8267 109.378 70.2593 109.378 70.802ZM112.502 79.668C113.059 79.5653 113.492 79.338 113.8 78.986C114.123 78.634 114.284 78.2087 114.284 77.71C114.284 77.226 114.13 76.8373 113.822 76.544C113.514 76.2507 113.074 76.0087 112.502 75.818V79.668ZM121.529 78.524C122.937 77.3507 124.059 76.3753 124.895 75.598C125.731 74.806 126.427 73.9847 126.985 73.134C127.542 72.2833 127.821 71.4473 127.821 70.626C127.821 69.878 127.645 69.2913 127.293 68.866C126.941 68.4407 126.398 68.228 125.665 68.228C124.931 68.228 124.367 68.4773 123.971 68.976C123.575 69.46 123.369 70.1273 123.355 70.978H120.363C120.421 69.218 120.942 67.8833 121.925 66.974C122.922 66.0647 124.183 65.61 125.709 65.61C127.381 65.61 128.664 66.0573 129.559 66.952C130.453 67.832 130.901 68.998 130.901 70.45C130.901 71.594 130.593 72.6867 129.977 73.728C129.361 74.7693 128.657 75.6787 127.865 76.456C127.073 77.2187 126.039 78.1427 124.763 79.228H131.253V81.78H120.385V79.492L121.529 78.524ZM143.973 68.624H136.845V72.386C137.153 72.0047 137.593 71.6967 138.165 71.462C138.737 71.2127 139.346 71.088 139.991 71.088C141.165 71.088 142.125 71.3447 142.873 71.858C143.621 72.3713 144.164 73.0313 144.501 73.838C144.839 74.63 145.007 75.4807 145.007 76.39C145.007 78.0767 144.523 79.4333 143.555 80.46C142.602 81.4867 141.238 82 139.463 82C137.791 82 136.457 81.582 135.459 80.746C134.462 79.91 133.897 78.8173 133.765 77.468H136.757C136.889 78.0547 137.183 78.524 137.637 78.876C138.107 79.228 138.701 79.404 139.419 79.404C140.285 79.404 140.937 79.1327 141.377 78.59C141.817 78.0473 142.037 77.3287 142.037 76.434C142.037 75.5247 141.81 74.8353 141.355 74.366C140.915 73.882 140.263 73.64 139.397 73.64C138.781 73.64 138.268 73.794 137.857 74.102C137.447 74.41 137.153 74.8207 136.977 75.334H134.029V65.918H143.973V68.624ZM155.668 69.966C155.521 69.35 155.264 68.888 154.898 68.58C154.546 68.272 154.032 68.118 153.358 68.118C152.346 68.118 151.598 68.5287 151.114 69.35C150.644 70.1567 150.402 71.4767 150.388 73.31C150.74 72.7233 151.253 72.2687 151.928 71.946C152.602 71.6087 153.336 71.44 154.128 71.44C155.081 71.44 155.924 71.6453 156.658 72.056C157.391 72.4667 157.963 73.068 158.374 73.86C158.784 74.6373 158.99 75.576 158.99 76.676C158.99 77.7173 158.777 78.6487 158.352 79.47C157.941 80.2767 157.332 80.9073 156.526 81.362C155.719 81.8167 154.758 82.044 153.644 82.044C152.118 82.044 150.916 81.7067 150.036 81.032C149.17 80.3573 148.562 79.4187 148.21 78.216C147.872 76.9987 147.704 75.5027 147.704 73.728C147.704 71.044 148.166 69.02 149.09 67.656C150.014 66.2773 151.473 65.588 153.468 65.588C155.008 65.588 156.203 66.006 157.054 66.842C157.904 67.678 158.396 68.7193 158.528 69.966H155.668ZM153.424 73.97C152.646 73.97 151.994 74.1973 151.466 74.652C150.938 75.1067 150.674 75.7667 150.674 76.632C150.674 77.4973 150.916 78.1793 151.4 78.678C151.898 79.1767 152.595 79.426 153.49 79.426C154.282 79.426 154.905 79.184 155.36 78.7C155.829 78.216 156.064 77.5633 156.064 76.742C156.064 75.8913 155.836 75.2167 155.382 74.718C154.942 74.2193 154.289 73.97 153.424 73.97ZM165.142 78.766L162.568 84.948H160.588L162.018 78.766H165.142ZM177.218 68.294L171.366 82H168.242L174.138 68.646H166.614V66.006H177.218V68.294ZM181.746 73.508C180.28 72.7453 179.546 71.5647 179.546 69.966C179.546 69.174 179.744 68.4553 180.14 67.81C180.551 67.15 181.16 66.6293 181.966 66.248C182.788 65.852 183.785 65.654 184.958 65.654C186.132 65.654 187.122 65.852 187.928 66.248C188.75 66.6293 189.358 67.15 189.754 67.81C190.165 68.4553 190.37 69.174 190.37 69.966C190.37 70.7727 190.172 71.484 189.776 72.1C189.38 72.7013 188.852 73.1707 188.192 73.508C188.999 73.86 189.63 74.3733 190.084 75.048C190.539 75.7227 190.766 76.522 190.766 77.446C190.766 78.4433 190.51 79.316 189.996 80.064C189.498 80.7973 188.808 81.362 187.928 81.758C187.048 82.154 186.058 82.352 184.958 82.352C183.858 82.352 182.868 82.154 181.988 81.758C181.123 81.362 180.434 80.7973 179.92 80.064C179.422 79.316 179.172 78.4433 179.172 77.446C179.172 76.522 179.4 75.7227 179.854 75.048C180.309 74.3587 180.94 73.8453 181.746 73.508ZM187.378 70.406C187.378 69.6873 187.158 69.13 186.718 68.734C186.293 68.338 185.706 68.14 184.958 68.14C184.225 68.14 183.638 68.338 183.198 68.734C182.773 69.13 182.56 69.6947 182.56 70.428C182.56 71.088 182.78 71.616 183.22 72.012C183.675 72.408 184.254 72.606 184.958 72.606C185.662 72.606 186.242 72.408 186.696 72.012C187.151 71.6013 187.378 71.066 187.378 70.406ZM184.958 74.85C184.122 74.85 183.44 75.0627 182.912 75.488C182.399 75.9133 182.142 76.522 182.142 77.314C182.142 78.0473 182.392 78.6487 182.89 79.118C183.404 79.5727 184.093 79.8 184.958 79.8C185.824 79.8 186.506 79.5653 187.004 79.096C187.503 78.6267 187.752 78.0327 187.752 77.314C187.752 76.5367 187.496 75.9353 186.982 75.51C186.469 75.07 185.794 74.85 184.958 74.85ZM196.763 77.49C196.881 78.1353 197.145 78.634 197.555 78.986C197.981 79.3233 198.545 79.492 199.249 79.492C200.159 79.492 200.819 79.118 201.229 78.37C201.64 77.6073 201.845 76.3313 201.845 74.542C201.508 75.0113 201.031 75.378 200.415 75.642C199.814 75.906 199.161 76.038 198.457 76.038C197.519 76.038 196.668 75.8473 195.905 75.466C195.157 75.07 194.563 74.4907 194.123 73.728C193.683 72.9507 193.463 72.012 193.463 70.912C193.463 69.284 193.947 67.9933 194.915 67.04C195.883 66.072 197.203 65.588 198.875 65.588C200.958 65.588 202.425 66.2553 203.275 67.59C204.141 68.9247 204.573 70.934 204.573 73.618C204.573 75.5247 204.405 77.0867 204.067 78.304C203.745 79.5213 203.18 80.4453 202.373 81.076C201.581 81.7067 200.496 82.022 199.117 82.022C198.032 82.022 197.108 81.8167 196.345 81.406C195.583 80.9807 194.996 80.4307 194.585 79.756C194.189 79.0667 193.962 78.3113 193.903 77.49H196.763ZM199.095 73.53C199.858 73.53 200.459 73.2953 200.899 72.826C201.339 72.3567 201.559 71.726 201.559 70.934C201.559 70.0687 201.325 69.4013 200.855 68.932C200.401 68.448 199.777 68.206 198.985 68.206C198.193 68.206 197.563 68.4553 197.093 68.954C196.639 69.438 196.411 70.0833 196.411 70.89C196.411 71.6673 196.631 72.3053 197.071 72.804C197.526 73.288 198.201 73.53 199.095 73.53Z" fill="#6D5A8E"/>
<path d="M35.97 127.67H33.19L32.73 129H31.26L33.77 122.01H35.4L37.91 129H36.43L35.97 127.67ZM35.59 126.55L34.58 123.63L33.57 126.55H35.59ZM41.1582 127.71L42.5582 123.46H44.0482L41.9982 129H40.2982L38.2582 123.46H39.7582L41.1582 127.71ZM49.9845 126.11C49.9845 126.31 49.9712 126.49 49.9445 126.65H45.8945C45.9279 127.05 46.0679 127.363 46.3145 127.59C46.5612 127.817 46.8645 127.93 47.2245 127.93C47.7445 127.93 48.1145 127.707 48.3345 127.26H49.8445C49.6845 127.793 49.3779 128.233 48.9245 128.58C48.4712 128.92 47.9145 129.09 47.2545 129.09C46.7212 129.09 46.2412 128.973 45.8145 128.74C45.3945 128.5 45.0645 128.163 44.8245 127.73C44.5912 127.297 44.4745 126.797 44.4745 126.23C44.4745 125.657 44.5912 125.153 44.8245 124.72C45.0579 124.287 45.3845 123.953 45.8045 123.72C46.2245 123.487 46.7079 123.37 47.2545 123.37C47.7812 123.37 48.2512 123.483 48.6645 123.71C49.0845 123.937 49.4079 124.26 49.6345 124.68C49.8679 125.093 49.9845 125.57 49.9845 126.11ZM48.5345 125.71C48.5279 125.35 48.3979 125.063 48.1445 124.85C47.8912 124.63 47.5812 124.52 47.2145 124.52C46.8679 124.52 46.5745 124.627 46.3345 124.84C46.1012 125.047 45.9579 125.337 45.9045 125.71H48.5345ZM52.4064 124.32C52.5864 124.027 52.8197 123.797 53.1064 123.63C53.3997 123.463 53.7331 123.38 54.1064 123.38V124.85H53.7364C53.2964 124.85 52.9631 124.953 52.7364 125.16C52.5164 125.367 52.4064 125.727 52.4064 126.24V129H51.0064V123.46H52.4064V124.32ZM54.6894 126.21C54.6894 125.65 54.7994 125.153 55.0194 124.72C55.246 124.287 55.5494 123.953 55.9294 123.72C56.316 123.487 56.746 123.37 57.2194 123.37C57.6327 123.37 57.9927 123.453 58.2994 123.62C58.6127 123.787 58.8627 123.997 59.0494 124.25V123.46H60.4594V129H59.0494V128.19C58.8694 128.45 58.6194 128.667 58.2994 128.84C57.986 129.007 57.6227 129.09 57.2094 129.09C56.7427 129.09 56.316 128.97 55.9294 128.73C55.5494 128.49 55.246 128.153 55.0194 127.72C54.7994 127.28 54.6894 126.777 54.6894 126.21ZM59.0494 126.23C59.0494 125.89 58.9827 125.6 58.8494 125.36C58.716 125.113 58.536 124.927 58.3094 124.8C58.0827 124.667 57.8394 124.6 57.5794 124.6C57.3194 124.6 57.0794 124.663 56.8594 124.79C56.6394 124.917 56.4594 125.103 56.3194 125.35C56.186 125.59 56.1194 125.877 56.1194 126.21C56.1194 126.543 56.186 126.837 56.3194 127.09C56.4594 127.337 56.6394 127.527 56.8594 127.66C57.086 127.793 57.326 127.86 57.5794 127.86C57.8394 127.86 58.0827 127.797 58.3094 127.67C58.536 127.537 58.716 127.35 58.8494 127.11C58.9827 126.863 59.0494 126.57 59.0494 126.23ZM63.9967 123.37C64.4101 123.37 64.7734 123.453 65.0867 123.62C65.4001 123.78 65.6467 123.99 65.8267 124.25V123.46H67.2367V129.04C67.2367 129.553 67.1334 130.01 66.9267 130.41C66.7201 130.817 66.4101 131.137 65.9967 131.37C65.5834 131.61 65.0834 131.73 64.4967 131.73C63.7101 131.73 63.0634 131.547 62.5567 131.18C62.0567 130.813 61.7734 130.313 61.7067 129.68H63.0967C63.1701 129.933 63.3267 130.133 63.5667 130.28C63.8134 130.433 64.1101 130.51 64.4567 130.51C64.8634 130.51 65.1934 130.387 65.4467 130.14C65.7001 129.9 65.8267 129.533 65.8267 129.04V128.18C65.6467 128.44 65.3967 128.657 65.0767 128.83C64.7634 129.003 64.4034 129.09 63.9967 129.09C63.5301 129.09 63.1034 128.97 62.7167 128.73C62.3301 128.49 62.0234 128.153 61.7967 127.72C61.5767 127.28 61.4667 126.777 61.4667 126.21C61.4667 125.65 61.5767 125.153 61.7967 124.72C62.0234 124.287 62.3267 123.953 62.7067 123.72C63.0934 123.487 63.5234 123.37 63.9967 123.37ZM65.8267 126.23C65.8267 125.89 65.7601 125.6 65.6267 125.36C65.4934 125.113 65.3134 124.927 65.0867 124.8C64.8601 124.667 64.6167 124.6 64.3567 124.6C64.0967 124.6 63.8567 124.663 63.6367 124.79C63.4167 124.917 63.2367 125.103 63.0967 125.35C62.9634 125.59 62.8967 125.877 62.8967 126.21C62.8967 126.543 62.9634 126.837 63.0967 127.09C63.2367 127.337 63.4167 127.527 63.6367 127.66C63.8634 127.793 64.1034 127.86 64.3567 127.86C64.6167 127.86 64.8601 127.797 65.0867 127.67C65.3134 127.537 65.4934 127.35 65.6267 127.11C65.7601 126.863 65.8267 126.57 65.8267 126.23ZM73.7541 126.11C73.7541 126.31 73.7407 126.49 73.7141 126.65H69.6641C69.6974 127.05 69.8374 127.363 70.0841 127.59C70.3307 127.817 70.6341 127.93 70.9941 127.93C71.5141 127.93 71.8841 127.707 72.1041 127.26H73.6141C73.4541 127.793 73.1474 128.233 72.6941 128.58C72.2407 128.92 71.6841 129.09 71.0241 129.09C70.4907 129.09 70.0107 128.973 69.5841 128.74C69.1641 128.5 68.8341 128.163 68.5941 127.73C68.3607 127.297 68.2441 126.797 68.2441 126.23C68.2441 125.657 68.3607 125.153 68.5941 124.72C68.8274 124.287 69.1541 123.953 69.5741 123.72C69.9941 123.487 70.4774 123.37 71.0241 123.37C71.5507 123.37 72.0207 123.483 72.4341 123.71C72.8541 123.937 73.1774 124.26 73.4041 124.68C73.6374 125.093 73.7541 125.57 73.7541 126.11ZM72.3041 125.71C72.2974 125.35 72.1674 125.063 71.9141 124.85C71.6607 124.63 71.3507 124.52 70.9841 124.52C70.6374 124.52 70.3441 124.627 70.1041 124.84C69.8707 125.047 69.7274 125.337 69.6741 125.71H72.3041ZM84.0388 123.38C84.7188 123.38 85.2654 123.59 85.6788 124.01C86.0988 124.423 86.3088 125.003 86.3088 125.75V129H84.9088V125.94C84.9088 125.507 84.7988 125.177 84.5788 124.95C84.3588 124.717 84.0588 124.6 83.6788 124.6C83.2988 124.6 82.9954 124.717 82.7688 124.95C82.5488 125.177 82.4388 125.507 82.4388 125.94V129H81.0388V125.94C81.0388 125.507 80.9288 125.177 80.7088 124.95C80.4888 124.717 80.1888 124.6 79.8088 124.6C79.4221 124.6 79.1154 124.717 78.8888 124.95C78.6688 125.177 78.5588 125.507 78.5588 125.94V129H77.1588V123.46H78.5588V124.13C78.7388 123.897 78.9688 123.713 79.2488 123.58C79.5354 123.447 79.8488 123.38 80.1888 123.38C80.6221 123.38 81.0088 123.473 81.3488 123.66C81.6888 123.84 81.9521 124.1 82.1388 124.44C82.3188 124.12 82.5788 123.863 82.9188 123.67C83.2654 123.477 83.6388 123.38 84.0388 123.38ZM90.0973 129.09C89.5639 129.09 89.0839 128.973 88.6573 128.74C88.2306 128.5 87.8939 128.163 87.6473 127.73C87.4073 127.297 87.2873 126.797 87.2873 126.23C87.2873 125.663 87.4106 125.163 87.6573 124.73C87.9106 124.297 88.2539 123.963 88.6873 123.73C89.1206 123.49 89.6039 123.37 90.1373 123.37C90.6706 123.37 91.1539 123.49 91.5873 123.73C92.0206 123.963 92.3606 124.297 92.6073 124.73C92.8606 125.163 92.9873 125.663 92.9873 126.23C92.9873 126.797 92.8573 127.297 92.5973 127.73C92.3439 128.163 91.9973 128.5 91.5573 128.74C91.1239 128.973 90.6373 129.09 90.0973 129.09ZM90.0973 127.87C90.3506 127.87 90.5873 127.81 90.8073 127.69C91.0339 127.563 91.2139 127.377 91.3473 127.13C91.4806 126.883 91.5473 126.583 91.5473 126.23C91.5473 125.703 91.4073 125.3 91.1273 125.02C90.8539 124.733 90.5173 124.59 90.1173 124.59C89.7173 124.59 89.3806 124.733 89.1073 125.02C88.8406 125.3 88.7073 125.703 88.7073 126.23C88.7073 126.757 88.8373 127.163 89.0973 127.45C89.3639 127.73 89.6973 127.87 90.0973 127.87ZM97.0842 123.38C97.7442 123.38 98.2776 123.59 98.6842 124.01C99.0909 124.423 99.2942 125.003 99.2942 125.75V129H97.8942V125.94C97.8942 125.5 97.7842 125.163 97.5642 124.93C97.3442 124.69 97.0442 124.57 96.6642 124.57C96.2776 124.57 95.9709 124.69 95.7442 124.93C95.5242 125.163 95.4142 125.5 95.4142 125.94V129H94.0142V123.46H95.4142V124.15C95.6009 123.91 95.8376 123.723 96.1242 123.59C96.4176 123.45 96.7376 123.38 97.0842 123.38ZM102.256 124.61V127.29C102.256 127.477 102.299 127.613 102.386 127.7C102.479 127.78 102.632 127.82 102.846 127.82H103.496V129H102.616C101.436 129 100.846 128.427 100.846 127.28V124.61H100.186V123.46H100.846V122.09H102.256V123.46H103.496V124.61H102.256ZM107.623 123.38C108.043 123.38 108.416 123.473 108.743 123.66C109.069 123.84 109.323 124.11 109.503 124.47C109.689 124.823 109.783 125.25 109.783 125.75V129H108.383V125.94C108.383 125.5 108.273 125.163 108.053 124.93C107.833 124.69 107.533 124.57 107.153 124.57C106.766 124.57 106.459 124.69 106.233 124.93C106.013 125.163 105.903 125.5 105.903 125.94V129H104.503V121.6H105.903V124.15C106.083 123.91 106.323 123.723 106.623 123.59C106.923 123.45 107.256 123.38 107.623 123.38ZM112.514 121.6V129H111.114V121.6H112.514ZM119.197 123.46L115.767 131.62H114.277L115.477 128.86L113.257 123.46H114.827L116.257 127.33L117.707 123.46H119.197ZM124.455 129.09C124.001 129.09 123.595 129.01 123.235 128.85C122.875 128.683 122.588 128.46 122.375 128.18C122.168 127.9 122.055 127.59 122.035 127.25H123.445C123.471 127.463 123.575 127.64 123.755 127.78C123.941 127.92 124.171 127.99 124.445 127.99C124.711 127.99 124.918 127.937 125.065 127.83C125.218 127.723 125.295 127.587 125.295 127.42C125.295 127.24 125.201 127.107 125.015 127.02C124.835 126.927 124.545 126.827 124.145 126.72C123.731 126.62 123.391 126.517 123.125 126.41C122.865 126.303 122.638 126.14 122.445 125.92C122.258 125.7 122.165 125.403 122.165 125.03C122.165 124.723 122.251 124.443 122.425 124.19C122.605 123.937 122.858 123.737 123.185 123.59C123.518 123.443 123.908 123.37 124.355 123.37C125.015 123.37 125.541 123.537 125.935 123.87C126.328 124.197 126.545 124.64 126.585 125.2H125.245C125.225 124.98 125.131 124.807 124.965 124.68C124.805 124.547 124.588 124.48 124.315 124.48C124.061 124.48 123.865 124.527 123.725 124.62C123.591 124.713 123.525 124.843 123.525 125.01C123.525 125.197 123.618 125.34 123.805 125.44C123.991 125.533 124.281 125.63 124.675 125.73C125.075 125.83 125.405 125.933 125.665 126.04C125.925 126.147 126.148 126.313 126.335 126.54C126.528 126.76 126.628 127.053 126.635 127.42C126.635 127.74 126.545 128.027 126.365 128.28C126.191 128.533 125.938 128.733 125.605 128.88C125.278 129.02 124.895 129.09 124.455 129.09ZM129.184 124.26C129.364 124.007 129.61 123.797 129.924 123.63C130.244 123.457 130.607 123.37 131.014 123.37C131.487 123.37 131.914 123.487 132.294 123.72C132.68 123.953 132.984 124.287 133.204 124.72C133.43 125.147 133.544 125.643 133.544 126.21C133.544 126.777 133.43 127.28 133.204 127.72C132.984 128.153 132.68 128.49 132.294 128.73C131.914 128.97 131.487 129.09 131.014 129.09C130.607 129.09 130.247 129.007 129.934 128.84C129.627 128.673 129.377 128.463 129.184 128.21V131.64H127.784V123.46H129.184V124.26ZM132.114 126.21C132.114 125.877 132.044 125.59 131.904 125.35C131.77 125.103 131.59 124.917 131.364 124.79C131.144 124.663 130.904 124.6 130.644 124.6C130.39 124.6 130.15 124.667 129.924 124.8C129.704 124.927 129.524 125.113 129.384 125.36C129.25 125.607 129.184 125.897 129.184 126.23C129.184 126.563 129.25 126.853 129.384 127.1C129.524 127.347 129.704 127.537 129.924 127.67C130.15 127.797 130.39 127.86 130.644 127.86C130.904 127.86 131.144 127.793 131.364 127.66C131.59 127.527 131.77 127.337 131.904 127.09C132.044 126.843 132.114 126.55 132.114 126.21ZM139.711 126.11C139.711 126.31 139.698 126.49 139.671 126.65H135.621C135.654 127.05 135.794 127.363 136.041 127.59C136.288 127.817 136.591 127.93 136.951 127.93C137.471 127.93 137.841 127.707 138.061 127.26H139.571C139.411 127.793 139.104 128.233 138.651 128.58C138.198 128.92 137.641 129.09 136.981 129.09C136.448 129.09 135.968 128.973 135.541 128.74C135.121 128.5 134.791 128.163 134.551 127.73C134.318 127.297 134.201 126.797 134.201 126.23C134.201 125.657 134.318 125.153 134.551 124.72C134.784 124.287 135.111 123.953 135.531 123.72C135.951 123.487 136.434 123.37 136.981 123.37C137.508 123.37 137.978 123.483 138.391 123.71C138.811 123.937 139.134 124.26 139.361 124.68C139.594 125.093 139.711 125.57 139.711 126.11ZM138.261 125.71C138.254 125.35 138.124 125.063 137.871 124.85C137.618 124.63 137.308 124.52 136.941 124.52C136.594 124.52 136.301 124.627 136.061 124.84C135.828 125.047 135.684 125.337 135.631 125.71H138.261ZM143.803 123.38C144.463 123.38 144.996 123.59 145.403 124.01C145.81 124.423 146.013 125.003 146.013 125.75V129H144.613V125.94C144.613 125.5 144.503 125.163 144.283 124.93C144.063 124.69 143.763 124.57 143.383 124.57C142.996 124.57 142.69 124.69 142.463 124.93C142.243 125.163 142.133 125.5 142.133 125.94V129H140.733V123.46H142.133V124.15C142.32 123.91 142.556 123.723 142.843 123.59C143.136 123.45 143.456 123.38 143.803 123.38ZM148.974 124.61V127.29C148.974 127.477 149.018 127.613 149.104 127.7C149.198 127.78 149.351 127.82 149.564 127.82H150.214V129H149.334C148.154 129 147.564 128.427 147.564 127.28V124.61H146.904V123.46H147.564V122.09H148.974V123.46H150.214V124.61H148.974ZM151.841 129.07C151.588 129.07 151.378 128.993 151.211 128.84C151.051 128.68 150.971 128.483 150.971 128.25C150.971 128.017 151.051 127.823 151.211 127.67C151.378 127.51 151.588 127.43 151.841 127.43C152.088 127.43 152.291 127.51 152.451 127.67C152.611 127.823 152.691 128.017 152.691 128.25C152.691 128.483 152.611 128.68 152.451 128.84C152.291 128.993 152.088 129.07 151.841 129.07ZM151.841 124.93C151.588 124.93 151.378 124.853 151.211 124.7C151.051 124.54 150.971 124.343 150.971 124.11C150.971 123.877 151.051 123.683 151.211 123.53C151.378 123.37 151.588 123.29 151.841 123.29C152.088 123.29 152.291 123.37 152.451 123.53C152.611 123.683 152.691 123.877 152.691 124.11C152.691 124.343 152.611 124.54 152.451 124.7C152.291 124.853 152.088 124.93 151.841 124.93ZM161.211 126.99C161.211 127.337 161.121 127.663 160.941 127.97C160.768 128.27 160.508 128.52 160.161 128.72C159.821 128.913 159.418 129.027 158.951 129.06V129.87H158.311V129.05C157.644 128.99 157.108 128.79 156.701 128.45C156.294 128.103 156.084 127.637 156.071 127.05H157.571C157.611 127.53 157.858 127.82 158.311 127.92V126.01C157.831 125.89 157.444 125.77 157.151 125.65C156.858 125.53 156.604 125.337 156.391 125.07C156.178 124.803 156.071 124.44 156.071 123.98C156.071 123.4 156.278 122.927 156.691 122.56C157.111 122.193 157.651 121.983 158.311 121.93V121.12H158.951V121.93C159.591 121.983 160.101 122.177 160.481 122.51C160.868 122.843 161.084 123.303 161.131 123.89H159.621C159.601 123.697 159.531 123.53 159.411 123.39C159.298 123.243 159.144 123.14 158.951 123.08V124.97C159.451 125.097 159.844 125.22 160.131 125.34C160.424 125.453 160.678 125.643 160.891 125.91C161.104 126.17 161.211 126.53 161.211 126.99ZM157.531 123.91C157.531 124.13 157.598 124.31 157.731 124.45C157.864 124.583 158.058 124.693 158.311 124.78V123.05C158.071 123.083 157.881 123.173 157.741 123.32C157.601 123.467 157.531 123.663 157.531 123.91ZM158.951 127.94C159.204 127.893 159.401 127.79 159.541 127.63C159.688 127.47 159.761 127.277 159.761 127.05C159.761 126.83 159.691 126.653 159.551 126.52C159.411 126.387 159.211 126.277 158.951 126.19V127.94ZM167.514 122.92H164.274V124.63C164.414 124.457 164.614 124.317 164.874 124.21C165.134 124.097 165.411 124.04 165.704 124.04C166.237 124.04 166.674 124.157 167.014 124.39C167.354 124.623 167.601 124.923 167.754 125.29C167.907 125.65 167.984 126.037 167.984 126.45C167.984 127.217 167.764 127.833 167.324 128.3C166.891 128.767 166.271 129 165.464 129C164.704 129 164.097 128.81 163.644 128.43C163.191 128.05 162.934 127.553 162.874 126.94H164.234C164.294 127.207 164.427 127.42 164.634 127.58C164.847 127.74 165.117 127.82 165.444 127.82C165.837 127.82 166.134 127.697 166.334 127.45C166.534 127.203 166.634 126.877 166.634 126.47C166.634 126.057 166.531 125.743 166.324 125.53C166.124 125.31 165.827 125.2 165.434 125.2C165.154 125.2 164.921 125.27 164.734 125.41C164.547 125.55 164.414 125.737 164.334 125.97H162.994V121.69H167.514V122.92ZM169.05 125.26C169.05 124.107 169.256 123.203 169.67 122.55C170.09 121.897 170.783 121.57 171.75 121.57C172.716 121.57 173.406 121.897 173.82 122.55C174.24 123.203 174.45 124.107 174.45 125.26C174.45 126.42 174.24 127.33 173.82 127.99C173.406 128.65 172.716 128.98 171.75 128.98C170.783 128.98 170.09 128.65 169.67 127.99C169.256 127.33 169.05 126.42 169.05 125.26ZM173.07 125.26C173.07 124.767 173.036 124.353 172.97 124.02C172.91 123.68 172.783 123.403 172.59 123.19C172.403 122.977 172.123 122.87 171.75 122.87C171.376 122.87 171.093 122.977 170.9 123.19C170.713 123.403 170.586 123.68 170.52 124.02C170.46 124.353 170.43 124.767 170.43 125.26C170.43 125.767 170.46 126.193 170.52 126.54C170.58 126.88 170.706 127.157 170.9 127.37C171.093 127.577 171.376 127.68 171.75 127.68C172.123 127.68 172.406 127.577 172.6 127.37C172.793 127.157 172.92 126.88 172.98 126.54C173.04 126.193 173.07 125.767 173.07 125.26ZM179.457 124.26C179.637 124.007 179.884 123.797 180.197 123.63C180.517 123.457 180.881 123.37 181.287 123.37C181.761 123.37 182.187 123.487 182.567 123.72C182.954 123.953 183.257 124.287 183.477 124.72C183.704 125.147 183.817 125.643 183.817 126.21C183.817 126.777 183.704 127.28 183.477 127.72C183.257 128.153 182.954 128.49 182.567 128.73C182.187 128.97 181.761 129.09 181.287 129.09C180.881 129.09 180.521 129.007 180.207 128.84C179.901 128.673 179.651 128.463 179.457 128.21V131.64H178.057V123.46H179.457V124.26ZM182.387 126.21C182.387 125.877 182.317 125.59 182.177 125.35C182.044 125.103 181.864 124.917 181.637 124.79C181.417 124.663 181.177 124.6 180.917 124.6C180.664 124.6 180.424 124.667 180.197 124.8C179.977 124.927 179.797 125.113 179.657 125.36C179.524 125.607 179.457 125.897 179.457 126.23C179.457 126.563 179.524 126.853 179.657 127.1C179.797 127.347 179.977 127.537 180.197 127.67C180.424 127.797 180.664 127.86 180.917 127.86C181.177 127.86 181.417 127.793 181.637 127.66C181.864 127.527 182.044 127.337 182.177 127.09C182.317 126.843 182.387 126.55 182.387 126.21ZM189.985 126.11C189.985 126.31 189.971 126.49 189.945 126.65H185.895C185.928 127.05 186.068 127.363 186.315 127.59C186.561 127.817 186.865 127.93 187.225 127.93C187.745 127.93 188.115 127.707 188.335 127.26H189.845C189.685 127.793 189.378 128.233 188.925 128.58C188.471 128.92 187.915 129.09 187.255 129.09C186.721 129.09 186.241 128.973 185.815 128.74C185.395 128.5 185.065 128.163 184.825 127.73C184.591 127.297 184.475 126.797 184.475 126.23C184.475 125.657 184.591 125.153 184.825 124.72C185.058 124.287 185.385 123.953 185.805 123.72C186.225 123.487 186.708 123.37 187.255 123.37C187.781 123.37 188.251 123.483 188.665 123.71C189.085 123.937 189.408 124.26 189.635 124.68C189.868 125.093 189.985 125.57 189.985 126.11ZM188.535 125.71C188.528 125.35 188.398 125.063 188.145 124.85C187.891 124.63 187.581 124.52 187.215 124.52C186.868 124.52 186.575 124.627 186.335 124.84C186.101 125.047 185.958 125.337 185.905 125.71H188.535ZM192.406 124.32C192.586 124.027 192.82 123.797 193.106 123.63C193.4 123.463 193.733 123.38 194.106 123.38V124.85H193.736C193.296 124.85 192.963 124.953 192.736 125.16C192.516 125.367 192.406 125.727 192.406 126.24V129H191.006V123.46H192.406V124.32ZM202.662 123.46V129H201.252V128.3C201.072 128.54 200.836 128.73 200.542 128.87C200.256 129.003 199.942 129.07 199.602 129.07C199.169 129.07 198.786 128.98 198.452 128.8C198.119 128.613 197.856 128.343 197.662 127.99C197.476 127.63 197.382 127.203 197.382 126.71V123.46H198.782V126.51C198.782 126.95 198.892 127.29 199.112 127.53C199.332 127.763 199.632 127.88 200.012 127.88C200.399 127.88 200.702 127.763 200.922 127.53C201.142 127.29 201.252 126.95 201.252 126.51V123.46H202.662ZM206.164 129.09C205.71 129.09 205.304 129.01 204.944 128.85C204.584 128.683 204.297 128.46 204.084 128.18C203.877 127.9 203.764 127.59 203.744 127.25H205.154C205.18 127.463 205.284 127.64 205.464 127.78C205.65 127.92 205.88 127.99 206.154 127.99C206.42 127.99 206.627 127.937 206.774 127.83C206.927 127.723 207.004 127.587 207.004 127.42C207.004 127.24 206.91 127.107 206.724 127.02C206.544 126.927 206.254 126.827 205.854 126.72C205.44 126.62 205.1 126.517 204.834 126.41C204.574 126.303 204.347 126.14 204.154 125.92C203.967 125.7 203.874 125.403 203.874 125.03C203.874 124.723 203.96 124.443 204.134 124.19C204.314 123.937 204.567 123.737 204.894 123.59C205.227 123.443 205.617 123.37 206.064 123.37C206.724 123.37 207.25 123.537 207.644 123.87C208.037 124.197 208.254 124.64 208.294 125.2H206.954C206.934 124.98 206.84 124.807 206.674 124.68C206.514 124.547 206.297 124.48 206.024 124.48C205.77 124.48 205.574 124.527 205.434 124.62C205.3 124.713 205.234 124.843 205.234 125.01C205.234 125.197 205.327 125.34 205.514 125.44C205.7 125.533 205.99 125.63 206.384 125.73C206.784 125.83 207.114 125.933 207.374 126.04C207.634 126.147 207.857 126.313 208.044 126.54C208.237 126.76 208.337 127.053 208.344 127.42C208.344 127.74 208.254 128.027 208.074 128.28C207.9 128.533 207.647 128.733 207.314 128.88C206.987 129.02 206.604 129.09 206.164 129.09ZM214.643 126.11C214.643 126.31 214.629 126.49 214.603 126.65H210.553C210.586 127.05 210.726 127.363 210.973 127.59C211.219 127.817 211.523 127.93 211.883 127.93C212.403 127.93 212.773 127.707 212.993 127.26H214.503C214.343 127.793 214.036 128.233 213.583 128.58C213.129 128.92 212.573 129.09 211.913 129.09C211.379 129.09 210.899 128.973 210.473 128.74C210.053 128.5 209.723 128.163 209.483 127.73C209.249 127.297 209.133 126.797 209.133 126.23C209.133 125.657 209.249 125.153 209.483 124.72C209.716 124.287 210.043 123.953 210.463 123.72C210.883 123.487 211.366 123.37 211.913 123.37C212.439 123.37 212.909 123.483 213.323 123.71C213.743 123.937 214.066 124.26 214.293 124.68C214.526 125.093 214.643 125.57 214.643 126.11ZM213.193 125.71C213.186 125.35 213.056 125.063 212.803 124.85C212.549 124.63 212.239 124.52 211.873 124.52C211.526 124.52 211.233 124.627 210.993 124.84C210.759 125.047 210.616 125.337 210.563 125.71H213.193ZM217.065 124.32C217.245 124.027 217.478 123.797 217.765 123.63C218.058 123.463 218.391 123.38 218.765 123.38V124.85H218.395C217.955 124.85 217.621 124.953 217.395 125.16C217.175 125.367 217.065 125.727 217.065 126.24V129H215.665V123.46H217.065V124.32Z" fill="#6D5A8E"/>
<rect x="1" y="1" width="248" height="148" rx="9" stroke="#6D5A8E" stroke-width="2"/>
</svg>
