<svg width="250" height="150" viewBox="0 0 250 150" fill="none" xmlns="http://www.w3.org/2000/svg">
<rect x="1" y="1" width="248" height="148" rx="9" fill="white"/>
<path d="M23.96 18.624V27H22.28V21.552L20.036 27H18.764L16.508 21.552V27H14.828V18.624H16.736L19.4 24.852L22.064 18.624H23.96ZM28.573 27.108C27.933 27.108 27.357 26.968 26.845 26.688C26.333 26.4 25.929 25.996 25.633 25.476C25.345 24.956 25.201 24.356 25.201 23.676C25.201 22.996 25.349 22.396 25.645 21.876C25.949 21.356 26.361 20.956 26.881 20.676C27.401 20.388 27.981 20.244 28.621 20.244C29.261 20.244 29.841 20.388 30.361 20.676C30.881 20.956 31.289 21.356 31.585 21.876C31.889 22.396 32.041 22.996 32.041 23.676C32.041 24.356 31.885 24.956 31.573 25.476C31.269 25.996 30.853 26.4 30.325 26.688C29.805 26.968 29.221 27.108 28.573 27.108ZM28.573 25.644C28.877 25.644 29.161 25.572 29.425 25.428C29.697 25.276 29.913 25.052 30.073 24.756C30.233 24.46 30.313 24.1 30.313 23.676C30.313 23.044 30.145 22.56 29.809 22.224C29.481 21.88 29.077 21.708 28.597 21.708C28.117 21.708 27.713 21.88 27.385 22.224C27.065 22.56 26.905 23.044 26.905 23.676C26.905 24.308 27.061 24.796 27.373 25.14C27.693 25.476 28.093 25.644 28.573 25.644ZM36.9573 20.256C37.7493 20.256 38.3893 20.508 38.8773 21.012C39.3653 21.508 39.6093 22.204 39.6093 23.1V27H37.9293V23.328C37.9293 22.8 37.7973 22.396 37.5333 22.116C37.2693 21.828 36.9093 21.684 36.4533 21.684C35.9893 21.684 35.6213 21.828 35.3493 22.116C35.0853 22.396 34.9533 22.8 34.9533 23.328V27H33.2733V20.352H34.9533V21.18C35.1773 20.892 35.4613 20.668 35.8053 20.508C36.1573 20.34 36.5413 20.256 36.9573 20.256ZM43.1629 21.732V24.948C43.1629 25.172 43.2149 25.336 43.3189 25.44C43.4309 25.536 43.6149 25.584 43.8709 25.584H44.6509V27H43.5949C42.1789 27 41.4709 26.312 41.4709 24.936V21.732H40.6789V20.352H41.4709V18.708H43.1629V20.352H44.6509V21.732H43.1629ZM49.6033 20.256C50.1073 20.256 50.5553 20.368 50.9473 20.592C51.3393 20.808 51.6433 21.132 51.8593 21.564C52.0833 21.988 52.1953 22.5 52.1953 23.1V27H50.5153V23.328C50.5153 22.8 50.3833 22.396 50.1193 22.116C49.8553 21.828 49.4953 21.684 49.0393 21.684C48.5753 21.684 48.2073 21.828 47.9353 22.116C47.6713 22.396 47.5393 22.8 47.5393 23.328V27H45.8593V18.12H47.5393V21.18C47.7553 20.892 48.0433 20.668 48.4033 20.508C48.7633 20.34 49.1633 20.256 49.6033 20.256ZM58.6082 21.732V24.948C58.6082 25.172 58.6602 25.336 58.7642 25.44C58.8762 25.536 59.0602 25.584 59.3162 25.584H60.0962V27H59.0402C57.6242 27 56.9162 26.312 56.9162 24.936V21.732H56.1242V20.352H56.9162V18.708H58.6082V20.352H60.0962V21.732H58.6082ZM64.2566 27.108C63.6166 27.108 63.0406 26.968 62.5286 26.688C62.0166 26.4 61.6126 25.996 61.3166 25.476C61.0286 24.956 60.8846 24.356 60.8846 23.676C60.8846 22.996 61.0326 22.396 61.3286 21.876C61.6326 21.356 62.0446 20.956 62.5646 20.676C63.0846 20.388 63.6646 20.244 64.3046 20.244C64.9446 20.244 65.5246 20.388 66.0446 20.676C66.5646 20.956 66.9726 21.356 67.2686 21.876C67.5726 22.396 67.7246 22.996 67.7246 23.676C67.7246 24.356 67.5686 24.956 67.2566 25.476C66.9526 25.996 66.5366 26.4 66.0086 26.688C65.4886 26.968 64.9046 27.108 64.2566 27.108ZM64.2566 25.644C64.5606 25.644 64.8446 25.572 65.1086 25.428C65.3806 25.276 65.5966 25.052 65.7566 24.756C65.9166 24.46 65.9966 24.1 65.9966 23.676C65.9966 23.044 65.8286 22.56 65.4926 22.224C65.1646 21.88 64.7606 21.708 64.2806 21.708C63.8006 21.708 63.3966 21.88 63.0686 22.224C62.7486 22.56 62.5886 23.044 62.5886 23.676C62.5886 24.308 62.7446 24.796 63.0566 25.14C63.3766 25.476 63.7766 25.644 64.2566 25.644ZM74.7443 18.624C75.6243 18.624 76.3963 18.796 77.0603 19.14C77.7323 19.484 78.2483 19.976 78.6083 20.616C78.9763 21.248 79.1603 21.984 79.1603 22.824C79.1603 23.664 78.9763 24.4 78.6083 25.032C78.2483 25.656 77.7323 26.14 77.0603 26.484C76.3963 26.828 75.6243 27 74.7443 27H71.8163V18.624H74.7443ZM74.6843 25.572C75.5643 25.572 76.2443 25.332 76.7243 24.852C77.2043 24.372 77.4443 23.696 77.4443 22.824C77.4443 21.952 77.2043 21.272 76.7243 20.784C76.2443 20.288 75.5643 20.04 74.6843 20.04H73.4963V25.572H74.6843ZM79.9858 23.652C79.9858 22.98 80.1178 22.384 80.3818 21.864C80.6538 21.344 81.0178 20.944 81.4738 20.664C81.9378 20.384 82.4538 20.244 83.0218 20.244C83.5178 20.244 83.9498 20.344 84.3178 20.544C84.6938 20.744 84.9938 20.996 85.2178 21.3V20.352H86.9098V27H85.2178V26.028C85.0018 26.34 84.7018 26.6 84.3178 26.808C83.9418 27.008 83.5058 27.108 83.0098 27.108C82.4498 27.108 81.9378 26.964 81.4738 26.676C81.0178 26.388 80.6538 25.984 80.3818 25.464C80.1178 24.936 79.9858 24.332 79.9858 23.652ZM85.2178 23.676C85.2178 23.268 85.1378 22.92 84.9778 22.632C84.8178 22.336 84.6018 22.112 84.3298 21.96C84.0578 21.8 83.7658 21.72 83.4538 21.72C83.1418 21.72 82.8538 21.796 82.5898 21.948C82.3258 22.1 82.1098 22.324 81.9418 22.62C81.7818 22.908 81.7018 23.252 81.7018 23.652C81.7018 24.052 81.7818 24.404 81.9418 24.708C82.1098 25.004 82.3258 25.232 82.5898 25.392C82.8618 25.552 83.1498 25.632 83.4538 25.632C83.7658 25.632 84.0578 25.556 84.3298 25.404C84.6018 25.244 84.8178 25.02 84.9778 24.732C85.1378 24.436 85.2178 24.084 85.2178 23.676ZM90.5067 21.732V24.948C90.5067 25.172 90.5587 25.336 90.6627 25.44C90.7747 25.536 90.9587 25.584 91.2147 25.584H91.9947V27H90.9387C89.5227 27 88.8147 26.312 88.8147 24.936V21.732H88.0227V20.352H88.8147V18.708H90.5067V20.352H91.9947V21.732H90.5067ZM99.383 23.532C99.383 23.772 99.367 23.988 99.335 24.18H94.475C94.515 24.66 94.683 25.036 94.979 25.308C95.275 25.58 95.639 25.716 96.071 25.716C96.695 25.716 97.139 25.448 97.403 24.912H99.215C99.023 25.552 98.655 26.08 98.111 26.496C97.567 26.904 96.899 27.108 96.107 27.108C95.467 27.108 94.891 26.968 94.379 26.688C93.875 26.4 93.479 25.996 93.191 25.476C92.911 24.956 92.771 24.356 92.771 23.676C92.771 22.988 92.911 22.384 93.191 21.864C93.471 21.344 93.863 20.944 94.367 20.664C94.871 20.384 95.451 20.244 96.107 20.244C96.739 20.244 97.303 20.38 97.799 20.652C98.303 20.924 98.691 21.312 98.963 21.816C99.243 22.312 99.383 22.884 99.383 23.532ZM97.643 23.052C97.635 22.62 97.479 22.276 97.175 22.02C96.871 21.756 96.499 21.624 96.059 21.624C95.643 21.624 95.291 21.752 95.003 22.008C94.723 22.256 94.551 22.604 94.487 23.052H97.643ZM105.149 18.624V27H103.469V18.624H105.149ZM110.492 20.256C111.284 20.256 111.924 20.508 112.412 21.012C112.9 21.508 113.144 22.204 113.144 23.1V27H111.464V23.328C111.464 22.8 111.332 22.396 111.068 22.116C110.804 21.828 110.444 21.684 109.988 21.684C109.524 21.684 109.156 21.828 108.884 22.116C108.62 22.396 108.488 22.8 108.488 23.328V27H106.808V20.352H108.488V21.18C108.712 20.892 108.996 20.668 109.34 20.508C109.692 20.34 110.076 20.256 110.492 20.256ZM117.514 25.452L119.194 20.352H120.982L118.522 27H116.482L114.034 20.352H115.834L117.514 25.452ZM124.878 27.108C124.238 27.108 123.662 26.968 123.15 26.688C122.638 26.4 122.234 25.996 121.938 25.476C121.65 24.956 121.506 24.356 121.506 23.676C121.506 22.996 121.654 22.396 121.95 21.876C122.254 21.356 122.666 20.956 123.186 20.676C123.706 20.388 124.286 20.244 124.926 20.244C125.566 20.244 126.146 20.388 126.666 20.676C127.186 20.956 127.594 21.356 127.89 21.876C128.194 22.396 128.346 22.996 128.346 23.676C128.346 24.356 128.19 24.956 127.878 25.476C127.574 25.996 127.158 26.4 126.63 26.688C126.11 26.968 125.526 27.108 124.878 27.108ZM124.878 25.644C125.182 25.644 125.466 25.572 125.73 25.428C126.002 25.276 126.218 25.052 126.378 24.756C126.538 24.46 126.618 24.1 126.618 23.676C126.618 23.044 126.45 22.56 126.114 22.224C125.786 21.88 125.382 21.708 124.902 21.708C124.422 21.708 124.018 21.88 123.69 22.224C123.37 22.56 123.21 23.044 123.21 23.676C123.21 24.308 123.366 24.796 123.678 25.14C123.998 25.476 124.398 25.644 124.878 25.644ZM130.43 19.56C130.134 19.56 129.886 19.468 129.686 19.284C129.494 19.092 129.398 18.856 129.398 18.576C129.398 18.296 129.494 18.064 129.686 17.88C129.886 17.688 130.134 17.592 130.43 17.592C130.726 17.592 130.97 17.688 131.162 17.88C131.362 18.064 131.462 18.296 131.462 18.576C131.462 18.856 131.362 19.092 131.162 19.284C130.97 19.468 130.726 19.56 130.43 19.56ZM131.258 20.352V27H129.578V20.352H131.258ZM132.486 23.676C132.486 22.988 132.626 22.388 132.906 21.876C133.186 21.356 133.574 20.956 134.07 20.676C134.566 20.388 135.134 20.244 135.774 20.244C136.598 20.244 137.278 20.452 137.814 20.868C138.358 21.276 138.722 21.852 138.906 22.596H137.094C136.998 22.308 136.834 22.084 136.602 21.924C136.378 21.756 136.098 21.672 135.762 21.672C135.282 21.672 134.902 21.848 134.622 22.2C134.342 22.544 134.202 23.036 134.202 23.676C134.202 24.308 134.342 24.8 134.622 25.152C134.902 25.496 135.282 25.668 135.762 25.668C136.442 25.668 136.886 25.364 137.094 24.756H138.906C138.722 25.476 138.358 26.048 137.814 26.472C137.27 26.896 136.59 27.108 135.774 27.108C135.134 27.108 134.566 26.968 134.07 26.688C133.574 26.4 133.186 26 132.906 25.488C132.626 24.968 132.486 24.364 132.486 23.676ZM146.317 23.532C146.317 23.772 146.301 23.988 146.269 24.18H141.409C141.449 24.66 141.617 25.036 141.913 25.308C142.209 25.58 142.573 25.716 143.005 25.716C143.629 25.716 144.073 25.448 144.337 24.912H146.149C145.957 25.552 145.589 26.08 145.045 26.496C144.501 26.904 143.833 27.108 143.041 27.108C142.401 27.108 141.825 26.968 141.313 26.688C140.809 26.4 140.413 25.996 140.125 25.476C139.845 24.956 139.705 24.356 139.705 23.676C139.705 22.988 139.845 22.384 140.125 21.864C140.405 21.344 140.797 20.944 141.301 20.664C141.805 20.384 142.385 20.244 143.041 20.244C143.673 20.244 144.237 20.38 144.733 20.652C145.237 20.924 145.625 21.312 145.897 21.816C146.177 22.312 146.317 22.884 146.317 23.532ZM144.577 23.052C144.569 22.62 144.413 22.276 144.109 22.02C143.805 21.756 143.433 21.624 142.993 21.624C142.577 21.624 142.225 21.752 141.937 22.008C141.657 22.256 141.485 22.604 141.421 23.052H144.577ZM155.286 18.624V24.504C155.286 25.32 155.05 25.956 154.578 26.412C154.106 26.86 153.474 27.084 152.682 27.084C151.882 27.084 151.234 26.852 150.738 26.388C150.25 25.924 150.006 25.276 150.006 24.444H151.686C151.694 24.804 151.778 25.084 151.938 25.284C152.106 25.484 152.346 25.584 152.658 25.584C152.962 25.584 153.194 25.488 153.354 25.296C153.514 25.104 153.594 24.84 153.594 24.504V18.624H155.286ZM163.522 20.352V27H161.83V26.16C161.614 26.448 161.33 26.676 160.978 26.844C160.634 27.004 160.258 27.084 159.85 27.084C159.33 27.084 158.87 26.976 158.47 26.76C158.07 26.536 157.754 26.212 157.522 25.788C157.298 25.356 157.186 24.844 157.186 24.252V20.352H158.866V24.012C158.866 24.54 158.998 24.948 159.262 25.236C159.526 25.516 159.886 25.656 160.342 25.656C160.806 25.656 161.17 25.516 161.434 25.236C161.698 24.948 161.83 24.54 161.83 24.012V20.352H163.522ZM166.86 18.12V27H165.18V18.12H166.86ZM174.879 20.352L170.763 30.144H168.975L170.415 26.832L167.751 20.352H169.635L171.351 24.996L173.091 20.352H174.879ZM178.98 25.104C179.748 24.464 180.36 23.932 180.816 23.508C181.272 23.076 181.652 22.628 181.956 22.164C182.26 21.7 182.412 21.244 182.412 20.796C182.412 20.388 182.316 20.068 182.124 19.836C181.932 19.604 181.636 19.488 181.236 19.488C180.836 19.488 180.528 19.624 180.312 19.896C180.096 20.16 179.984 20.524 179.976 20.988H178.344C178.376 20.028 178.66 19.3 179.196 18.804C179.74 18.308 180.428 18.06 181.26 18.06C182.172 18.06 182.872 18.304 183.36 18.792C183.848 19.272 184.092 19.908 184.092 20.7C184.092 21.324 183.924 21.92 183.588 22.488C183.252 23.056 182.868 23.552 182.436 23.976C182.004 24.392 181.44 24.896 180.744 25.488H184.284V26.88H178.356V25.632L178.98 25.104ZM185.343 22.512C185.343 21.128 185.591 20.044 186.087 19.26C186.591 18.476 187.423 18.084 188.583 18.084C189.743 18.084 190.571 18.476 191.067 19.26C191.571 20.044 191.823 21.128 191.823 22.512C191.823 23.904 191.571 24.996 191.067 25.788C190.571 26.58 189.743 26.976 188.583 26.976C187.423 26.976 186.591 26.58 186.087 25.788C185.591 24.996 185.343 23.904 185.343 22.512ZM190.167 22.512C190.167 21.92 190.127 21.424 190.047 21.024C189.975 20.616 189.823 20.284 189.591 20.028C189.367 19.772 189.031 19.644 188.583 19.644C188.135 19.644 187.795 19.772 187.563 20.028C187.339 20.284 187.187 20.616 187.107 21.024C187.035 21.424 186.999 21.92 186.999 22.512C186.999 23.12 187.035 23.632 187.107 24.048C187.179 24.456 187.331 24.788 187.563 25.044C187.795 25.292 188.135 25.416 188.583 25.416C189.031 25.416 189.371 25.292 189.603 25.044C189.835 24.788 189.987 24.456 190.059 24.048C190.131 23.632 190.167 23.12 190.167 22.512ZM193.629 25.104C194.397 24.464 195.009 23.932 195.465 23.508C195.921 23.076 196.301 22.628 196.605 22.164C196.909 21.7 197.061 21.244 197.061 20.796C197.061 20.388 196.965 20.068 196.773 19.836C196.581 19.604 196.285 19.488 195.885 19.488C195.485 19.488 195.177 19.624 194.961 19.896C194.745 20.16 194.633 20.524 194.625 20.988H192.993C193.025 20.028 193.309 19.3 193.845 18.804C194.389 18.308 195.077 18.06 195.909 18.06C196.821 18.06 197.521 18.304 198.009 18.792C198.497 19.272 198.741 19.908 198.741 20.7C198.741 21.324 198.573 21.92 198.237 22.488C197.901 23.056 197.517 23.552 197.085 23.976C196.653 24.392 196.089 24.896 195.393 25.488H198.933V26.88H193.005V25.632L193.629 25.104ZM200.519 25.104C201.287 24.464 201.899 23.932 202.355 23.508C202.811 23.076 203.191 22.628 203.495 22.164C203.799 21.7 203.951 21.244 203.951 20.796C203.951 20.388 203.855 20.068 203.663 19.836C203.471 19.604 203.175 19.488 202.775 19.488C202.375 19.488 202.067 19.624 201.851 19.896C201.635 20.16 201.523 20.524 201.515 20.988H199.883C199.915 20.028 200.199 19.3 200.735 18.804C201.279 18.308 201.967 18.06 202.799 18.06C203.711 18.06 204.411 18.304 204.899 18.792C205.387 19.272 205.631 19.908 205.631 20.7C205.631 21.324 205.463 21.92 205.127 22.488C204.791 23.056 204.407 23.552 203.975 23.976C203.543 24.392 202.979 24.896 202.283 25.488H205.823V26.88H199.895V25.632L200.519 25.104Z" fill="#6D5A8E"/>
<path d="M228 16C224.134 16 221 19.1344 221 23C221 26.8656 224.134 30 228 30C231.866 30 235 26.8656 235 23C235 19.1344 231.866 16 228 16ZM228.5 26.375C228.5 26.4438 228.444 26.5 228.375 26.5H227.625C227.556 26.5 227.5 26.4438 227.5 26.375V22.125C227.5 22.0562 227.556 22 227.625 22H228.375C228.444 22 228.5 22.0562 228.5 22.125V26.375ZM228 21C227.804 20.996 227.617 20.9152 227.479 20.775C227.342 20.6348 227.265 20.4463 227.265 20.25C227.265 20.0537 227.342 19.8652 227.479 19.725C227.617 19.5848 227.804 19.504 228 19.5C228.196 19.504 228.383 19.5848 228.521 19.725C228.658 19.8652 228.735 20.0537 228.735 20.25C228.735 20.4463 228.658 20.6348 228.521 20.775C228.383 20.9152 228.196 20.996 228 21Z" fill="#6D5A8E"/>
<rect x="40" y="61" width="50" height="50" rx="25" fill="#6D5A8E" fill-opacity="0.2"/>
<path d="M70 97.1798L67.41 94.5898L66 95.9998L70 99.9998L78 91.9998L76.59 90.5898L70 97.1798Z" fill="#6D5A8E"/>
<path d="M73 75H70V74C69.9984 73.4701 69.7872 72.9623 69.4125 72.5875C69.0377 72.2128 68.5299 72.0016 68 72H60C59.4701 72.0016 58.9623 72.2128 58.5875 72.5875C58.2128 72.9623 58.0016 73.4701 58 74V75H55C54.4701 75.0016 53.9623 75.2128 53.5875 75.5875C53.2128 75.9623 53.0016 76.4701 53 77V98C53.0016 98.5299 53.2128 99.0377 53.5875 99.4125C53.9623 99.7872 54.4701 99.9984 55 100H64V98H55V77H58V80H70V77H73V88H75V77C74.9984 76.4701 74.7872 75.9623 74.4125 75.5875C74.0377 75.2128 73.5299 75.0016 73 75ZM68 78H60V74H68V78Z" fill="#6D5A8E"/>
<path d="M117.474 88.578C117.474 89.3407 117.276 90.0593 116.88 90.734C116.499 91.394 115.927 91.944 115.164 92.384C114.416 92.8093 113.529 93.0587 112.502 93.132V94.914H111.094V93.11C109.627 92.978 108.447 92.538 107.552 91.79C106.657 91.0273 106.195 90.0007 106.166 88.71H109.466C109.554 89.766 110.097 90.404 111.094 90.624V86.422C110.038 86.158 109.187 85.894 108.542 85.63C107.897 85.366 107.339 84.9407 106.87 84.354C106.401 83.7673 106.166 82.968 106.166 81.956C106.166 80.68 106.621 79.6387 107.53 78.832C108.454 78.0253 109.642 77.5633 111.094 77.446V75.664H112.502V77.446C113.91 77.5633 115.032 77.9887 115.868 78.722C116.719 79.4553 117.195 80.4673 117.298 81.758H113.976C113.932 81.3327 113.778 80.966 113.514 80.658C113.265 80.3353 112.927 80.108 112.502 79.976V84.134C113.602 84.4127 114.467 84.684 115.098 84.948C115.743 85.1973 116.301 85.6153 116.77 86.202C117.239 86.774 117.474 87.566 117.474 88.578ZM109.378 81.802C109.378 82.286 109.525 82.682 109.818 82.99C110.111 83.2833 110.537 83.5253 111.094 83.716V79.91C110.566 79.9833 110.148 80.1813 109.84 80.504C109.532 80.8267 109.378 81.2593 109.378 81.802ZM112.502 90.668C113.059 90.5653 113.492 90.338 113.8 89.986C114.123 89.634 114.284 89.2087 114.284 88.71C114.284 88.226 114.13 87.8373 113.822 87.544C113.514 87.2507 113.074 87.0087 112.502 86.818V90.668ZM121.529 89.524C122.937 88.3507 124.059 87.3753 124.895 86.598C125.731 85.806 126.427 84.9847 126.985 84.134C127.542 83.2833 127.821 82.4473 127.821 81.626C127.821 80.878 127.645 80.2913 127.293 79.866C126.941 79.4407 126.398 79.228 125.665 79.228C124.931 79.228 124.367 79.4773 123.971 79.976C123.575 80.46 123.369 81.1273 123.355 81.978H120.363C120.421 80.218 120.942 78.8833 121.925 77.974C122.922 77.0647 124.183 76.61 125.709 76.61C127.381 76.61 128.664 77.0573 129.559 77.952C130.453 78.832 130.901 79.998 130.901 81.45C130.901 82.594 130.593 83.6867 129.977 84.728C129.361 85.7693 128.657 86.6787 127.865 87.456C127.073 88.2187 126.039 89.1427 124.763 90.228H131.253V92.78H120.385V90.492L121.529 89.524ZM143.973 79.624H136.845V83.386C137.153 83.0047 137.593 82.6967 138.165 82.462C138.737 82.2127 139.346 82.088 139.991 82.088C141.165 82.088 142.125 82.3447 142.873 82.858C143.621 83.3713 144.164 84.0313 144.501 84.838C144.839 85.63 145.007 86.4807 145.007 87.39C145.007 89.0767 144.523 90.4333 143.555 91.46C142.602 92.4867 141.238 93 139.463 93C137.791 93 136.457 92.582 135.459 91.746C134.462 90.91 133.897 89.8173 133.765 88.468H136.757C136.889 89.0547 137.183 89.524 137.637 89.876C138.107 90.228 138.701 90.404 139.419 90.404C140.285 90.404 140.937 90.1327 141.377 89.59C141.817 89.0473 142.037 88.3287 142.037 87.434C142.037 86.5247 141.81 85.8353 141.355 85.366C140.915 84.882 140.263 84.64 139.397 84.64C138.781 84.64 138.268 84.794 137.857 85.102C137.447 85.41 137.153 85.8207 136.977 86.334H134.029V76.918H143.973V79.624ZM157.56 79.294L151.708 93H148.584L154.48 79.646H146.956V77.006H157.56V79.294ZM163.122 89.766L160.548 95.948H158.568L159.998 89.766H163.122ZM165.034 81.186C165.108 79.7193 165.621 78.59 166.574 77.798C167.542 76.9913 168.811 76.588 170.38 76.588C171.451 76.588 172.368 76.7787 173.13 77.16C173.893 77.5267 174.465 78.0327 174.846 78.678C175.242 79.3087 175.44 80.0273 175.44 80.834C175.44 81.758 175.198 82.5427 174.714 83.188C174.245 83.8187 173.68 84.244 173.02 84.464V84.552C173.871 84.816 174.531 85.2853 175 85.96C175.484 86.6347 175.726 87.5 175.726 88.556C175.726 89.436 175.521 90.2207 175.11 90.91C174.714 91.5993 174.12 92.142 173.328 92.538C172.551 92.9193 171.612 93.11 170.512 93.11C168.855 93.11 167.506 92.692 166.464 91.856C165.423 91.02 164.873 89.788 164.814 88.16H167.806C167.836 88.8787 168.078 89.458 168.532 89.898C169.002 90.3233 169.64 90.536 170.446 90.536C171.194 90.536 171.766 90.3307 172.162 89.92C172.573 89.4947 172.778 88.952 172.778 88.292C172.778 87.412 172.5 86.7813 171.942 86.4C171.385 86.0187 170.52 85.828 169.346 85.828H168.708V83.298H169.346C171.429 83.298 172.47 82.6013 172.47 81.208C172.47 80.5773 172.28 80.086 171.898 79.734C171.532 79.382 170.996 79.206 170.292 79.206C169.603 79.206 169.068 79.3967 168.686 79.778C168.32 80.1447 168.107 80.614 168.048 81.186H165.034ZM188.368 79.294L182.516 93H179.392L185.288 79.646H177.764V77.006H188.368V79.294ZM200.993 79.624H193.865V83.386C194.173 83.0047 194.613 82.6967 195.185 82.462C195.757 82.2127 196.366 82.088 197.011 82.088C198.184 82.088 199.145 82.3447 199.893 82.858C200.641 83.3713 201.184 84.0313 201.521 84.838C201.858 85.63 202.027 86.4807 202.027 87.39C202.027 89.0767 201.543 90.4333 200.575 91.46C199.622 92.4867 198.258 93 196.483 93C194.811 93 193.476 92.582 192.479 91.746C191.482 90.91 190.917 89.8173 190.785 88.468H193.777C193.909 89.0547 194.202 89.524 194.657 89.876C195.126 90.228 195.72 90.404 196.439 90.404C197.304 90.404 197.957 90.1327 198.397 89.59C198.837 89.0473 199.057 88.3287 199.057 87.434C199.057 86.5247 198.83 85.8353 198.375 85.366C197.935 84.882 197.282 84.64 196.417 84.64C195.801 84.64 195.288 84.794 194.877 85.102C194.466 85.41 194.173 85.8207 193.997 86.334H191.049V76.918H200.993V79.624Z" fill="#6D5A8E"/>
<rect x="1" y="1" width="248" height="148" rx="9" stroke="#6D5A8E" stroke-width="2"/>
</svg>
