<svg width="30" height="30" viewBox="0 0 30 30" fill="none" xmlns="http://www.w3.org/2000/svg">
<path d="M11.25 26.25H18.75H11.25ZM11.25 26.25V20V26.25ZM11.25 26.25H4.5C4.30109 26.25 4.11032 26.171 3.96967 26.0303C3.82902 25.8897 3.75 25.6989 3.75 25.5V20.75C3.75 20.5511 3.82902 20.3603 3.96967 20.2197C4.11032 20.079 4.30109 20 4.5 20H11.25M18.75 26.25V11.25V26.25ZM18.75 26.25H25.5C25.6989 26.25 25.8897 26.171 26.0303 26.0303C26.171 25.8897 26.25 25.6989 26.25 25.5V4.5C26.25 4.30109 26.171 4.11032 26.0303 3.96967C25.8897 3.82902 25.6989 3.75 25.5 3.75H19.5C19.3011 3.75 19.1103 3.82902 18.9697 3.96967C18.829 4.11032 18.75 4.30109 18.75 4.5V11.25M18.75 11.25H12C11.8011 11.25 11.6103 11.329 11.4697 11.4697C11.329 11.6103 11.25 11.8011 11.25 12V20" fill="#B0A6C2"/>
<path d="M11.25 26.25H18.75M11.25 26.25V20M11.25 26.25H4.5C4.30109 26.25 4.11032 26.171 3.96967 26.0303C3.82902 25.8897 3.75 25.6989 3.75 25.5V20.75C3.75 20.5511 3.82902 20.3603 3.96967 20.2197C4.11032 20.079 4.30109 20 4.5 20H11.25M18.75 26.25V11.25M18.75 26.25H25.5C25.6989 26.25 25.8897 26.171 26.0303 26.0303C26.171 25.8897 26.25 25.6989 26.25 25.5V4.5C26.25 4.30109 26.171 4.11032 26.0303 3.96967C25.8897 3.82902 25.6989 3.75 25.5 3.75H19.5C19.3011 3.75 19.1103 3.82902 18.9697 3.96967C18.829 4.11032 18.75 4.30109 18.75 4.5V11.25M18.75 11.25H12C11.8011 11.25 11.6103 11.329 11.4697 11.4697C11.329 11.6103 11.25 11.8011 11.25 12V20" stroke="#705D91" stroke-width="1.5"/>
<rect width="7.5" height="15" transform="translate(11.25 11.25)" fill="#705D91"/>
</svg>
