<svg width="30" height="30" viewBox="0 0 30 30" fill="none" xmlns="http://www.w3.org/2000/svg">
<path d="M15 16.875C16.0355 16.875 16.875 16.0355 16.875 15C16.875 13.9645 16.0355 13.125 15 13.125C13.9645 13.125 13.125 13.9645 13.125 15C13.125 16.0355 13.9645 16.875 15 16.875Z" fill="#705D91"/>
<mask id="path-2-inside-1_125_1810" fill="white">
<path d="M25.4 11.7125H24.0375C23.8625 11.7125 23.7375 11.575 23.6625 11.3875C23.6178 11.3186 23.5941 11.2383 23.5941 11.1562C23.5941 11.0742 23.6178 10.9939 23.6625 10.925L24.675 10C24.8734 9.80913 25.0311 9.58001 25.1385 9.3265C25.246 9.07299 25.3009 8.80033 25.3 8.525C25.2997 8.24799 25.2443 7.97381 25.137 7.71843C25.0297 7.46304 24.8727 7.23157 24.675 7.0375L23 5.325C22.806 5.12961 22.5752 4.97453 22.321 4.86871C22.0668 4.76288 21.7941 4.7084 21.5187 4.7084C21.2434 4.7084 20.9707 4.76288 20.7165 4.86871C20.4623 4.97453 20.2315 5.12961 20.0375 5.325L19.075 6.25C18.9985 6.299 18.9096 6.32505 18.8188 6.32505C18.7279 6.32505 18.639 6.299 18.5625 6.25C18.487 6.22185 18.4211 6.17283 18.3724 6.10865C18.3237 6.04447 18.2943 5.96777 18.2875 5.8875V4.6C18.2877 4.05371 18.0751 3.52882 17.6947 3.13674C17.3143 2.74467 16.7961 2.51626 16.25 2.5H13.825C13.2669 2.49999 12.7315 2.72084 12.3356 3.11431C11.9398 3.50778 11.7158 4.0419 11.7125 4.6V5.9625C11.7125 6.1375 11.575 6.2625 11.3875 6.3375C11.3186 6.38216 11.2383 6.40592 11.1562 6.40592C11.0742 6.40592 10.9939 6.38216 10.925 6.3375L10 5.325C9.6041 4.93146 9.07067 4.70733 8.5125 4.7C8.23738 4.70054 7.96516 4.75611 7.71184 4.86345C7.45853 4.97078 7.22925 5.12771 7.0375 5.325L5.325 7C5.12389 7.19464 4.96398 7.42774 4.85477 7.68542C4.74556 7.94311 4.68928 8.22013 4.68928 8.5C4.68928 8.77987 4.74556 9.05689 4.85477 9.31458C4.96398 9.57226 5.12389 9.80536 5.325 10L6.25 10.925C6.299 11.0015 6.32505 11.0904 6.32505 11.1812C6.32505 11.2721 6.299 11.361 6.25 11.4375C6.22185 11.513 6.17283 11.5789 6.10865 11.6276C6.04447 11.6763 5.96777 11.7057 5.8875 11.7125H4.6C4.04305 11.7125 3.5089 11.9337 3.11508 12.3276C2.72125 12.7214 2.5 13.2555 2.5 13.8125V16.175C2.49999 16.7331 2.72084 17.2685 3.11431 17.6644C3.50778 18.0602 4.0419 18.2842 4.6 18.2875H5.9625C6.1375 18.2875 6.2625 18.425 6.3375 18.6125C6.38216 18.6814 6.40592 18.7617 6.40592 18.8438C6.40592 18.9258 6.38216 19.0061 6.3375 19.075L5.325 20C4.93146 20.3959 4.70733 20.9293 4.7 21.4875C4.69957 21.7646 4.75466 22.039 4.862 22.2945C4.96934 22.55 5.12677 22.7814 5.325 22.975L7 24.675C7.19403 24.8704 7.4248 25.0255 7.67902 25.1313C7.93324 25.2371 8.20588 25.2916 8.48125 25.2916C8.75662 25.2916 9.02926 25.2371 9.28348 25.1313C9.5377 25.0255 9.76847 24.8704 9.9625 24.675L10.925 23.75C11.0015 23.701 11.0904 23.6749 11.1812 23.6749C11.2721 23.6749 11.361 23.701 11.4375 23.75C11.513 23.7781 11.5789 23.8272 11.6276 23.8913C11.6763 23.9555 11.7057 24.0322 11.7125 24.1125V25.475C11.7319 26.0189 11.9617 26.5339 12.3535 26.9117C12.7452 27.2894 13.2683 27.5003 13.8125 27.5H16.175C16.7331 27.5 17.2685 27.2792 17.6644 26.8857C18.0602 26.4922 18.2842 25.9581 18.2875 25.4V24.0375C18.2875 23.8625 18.425 23.7375 18.6125 23.6625C18.6814 23.6178 18.7617 23.5941 18.8438 23.5941C18.9258 23.5941 19.0061 23.6178 19.075 23.6625L20.025 24.625C20.4209 25.0185 20.9543 25.2427 21.5125 25.25C21.7876 25.2495 22.0598 25.1939 22.3132 25.0866C22.5665 24.9792 22.7958 24.8223 22.9875 24.625L24.6625 22.95C24.8579 22.756 25.013 22.5252 25.1188 22.271C25.2246 22.0168 25.2791 21.7441 25.2791 21.4688C25.2791 21.1934 25.2246 20.9207 25.1188 20.6665C25.013 20.4123 24.8579 20.1815 24.6625 19.9875L23.75 19.075C23.7053 19.0061 23.6816 18.9258 23.6816 18.8438C23.6816 18.7617 23.7053 18.6814 23.75 18.6125C23.7781 18.537 23.8272 18.4711 23.8913 18.4224C23.9555 18.3737 24.0322 18.3443 24.1125 18.3375H25.475C26.0167 18.3181 26.5299 18.0901 26.9073 17.701C27.2848 17.312 27.4971 16.792 27.5 16.25V13.825C27.5 13.2669 27.2792 12.7315 26.8857 12.3356C26.4922 11.9398 25.9581 11.7158 25.4 11.7125ZM15 19.375C14.1347 19.375 13.2888 19.1184 12.5694 18.6377C11.8499 18.1569 11.2892 17.4737 10.958 16.6742C10.6269 15.8748 10.5403 14.9951 10.7091 14.1465C10.8779 13.2978 11.2946 12.5183 11.9064 11.9064C12.5183 11.2946 13.2978 10.8779 14.1465 10.7091C14.9951 10.5403 15.8748 10.6269 16.6742 10.958C17.4737 11.2892 18.1569 11.8499 18.6377 12.5694C19.1184 13.2888 19.375 14.1347 19.375 15C19.375 16.1603 18.9141 17.2731 18.0936 18.0936C17.2731 18.9141 16.1603 19.375 15 19.375Z"/>
</mask>
<path d="M25.4 11.7125H24.0375C23.8625 11.7125 23.7375 11.575 23.6625 11.3875C23.6178 11.3186 23.5941 11.2383 23.5941 11.1562C23.5941 11.0742 23.6178 10.9939 23.6625 10.925L24.675 10C24.8734 9.80913 25.0311 9.58001 25.1385 9.3265C25.246 9.07299 25.3009 8.80033 25.3 8.525C25.2997 8.24799 25.2443 7.97381 25.137 7.71843C25.0297 7.46304 24.8727 7.23157 24.675 7.0375L23 5.325C22.806 5.12961 22.5752 4.97453 22.321 4.86871C22.0668 4.76288 21.7941 4.7084 21.5187 4.7084C21.2434 4.7084 20.9707 4.76288 20.7165 4.86871C20.4623 4.97453 20.2315 5.12961 20.0375 5.325L19.075 6.25C18.9985 6.299 18.9096 6.32505 18.8188 6.32505C18.7279 6.32505 18.639 6.299 18.5625 6.25C18.487 6.22185 18.4211 6.17283 18.3724 6.10865C18.3237 6.04447 18.2943 5.96777 18.2875 5.8875V4.6C18.2877 4.05371 18.0751 3.52882 17.6947 3.13674C17.3143 2.74467 16.7961 2.51626 16.25 2.5H13.825C13.2669 2.49999 12.7315 2.72084 12.3356 3.11431C11.9398 3.50778 11.7158 4.0419 11.7125 4.6V5.9625C11.7125 6.1375 11.575 6.2625 11.3875 6.3375C11.3186 6.38216 11.2383 6.40592 11.1562 6.40592C11.0742 6.40592 10.9939 6.38216 10.925 6.3375L10 5.325C9.6041 4.93146 9.07067 4.70733 8.5125 4.7C8.23738 4.70054 7.96516 4.75611 7.71184 4.86345C7.45853 4.97078 7.22925 5.12771 7.0375 5.325L5.325 7C5.12389 7.19464 4.96398 7.42774 4.85477 7.68542C4.74556 7.94311 4.68928 8.22013 4.68928 8.5C4.68928 8.77987 4.74556 9.05689 4.85477 9.31458C4.96398 9.57226 5.12389 9.80536 5.325 10L6.25 10.925C6.299 11.0015 6.32505 11.0904 6.32505 11.1812C6.32505 11.2721 6.299 11.361 6.25 11.4375C6.22185 11.513 6.17283 11.5789 6.10865 11.6276C6.04447 11.6763 5.96777 11.7057 5.8875 11.7125H4.6C4.04305 11.7125 3.5089 11.9337 3.11508 12.3276C2.72125 12.7214 2.5 13.2555 2.5 13.8125V16.175C2.49999 16.7331 2.72084 17.2685 3.11431 17.6644C3.50778 18.0602 4.0419 18.2842 4.6 18.2875H5.9625C6.1375 18.2875 6.2625 18.425 6.3375 18.6125C6.38216 18.6814 6.40592 18.7617 6.40592 18.8438C6.40592 18.9258 6.38216 19.0061 6.3375 19.075L5.325 20C4.93146 20.3959 4.70733 20.9293 4.7 21.4875C4.69957 21.7646 4.75466 22.039 4.862 22.2945C4.96934 22.55 5.12677 22.7814 5.325 22.975L7 24.675C7.19403 24.8704 7.4248 25.0255 7.67902 25.1313C7.93324 25.2371 8.20588 25.2916 8.48125 25.2916C8.75662 25.2916 9.02926 25.2371 9.28348 25.1313C9.5377 25.0255 9.76847 24.8704 9.9625 24.675L10.925 23.75C11.0015 23.701 11.0904 23.6749 11.1812 23.6749C11.2721 23.6749 11.361 23.701 11.4375 23.75C11.513 23.7781 11.5789 23.8272 11.6276 23.8913C11.6763 23.9555 11.7057 24.0322 11.7125 24.1125V25.475C11.7319 26.0189 11.9617 26.5339 12.3535 26.9117C12.7452 27.2894 13.2683 27.5003 13.8125 27.5H16.175C16.7331 27.5 17.2685 27.2792 17.6644 26.8857C18.0602 26.4922 18.2842 25.9581 18.2875 25.4V24.0375C18.2875 23.8625 18.425 23.7375 18.6125 23.6625C18.6814 23.6178 18.7617 23.5941 18.8438 23.5941C18.9258 23.5941 19.0061 23.6178 19.075 23.6625L20.025 24.625C20.4209 25.0185 20.9543 25.2427 21.5125 25.25C21.7876 25.2495 22.0598 25.1939 22.3132 25.0866C22.5665 24.9792 22.7958 24.8223 22.9875 24.625L24.6625 22.95C24.8579 22.756 25.013 22.5252 25.1188 22.271C25.2246 22.0168 25.2791 21.7441 25.2791 21.4688C25.2791 21.1934 25.2246 20.9207 25.1188 20.6665C25.013 20.4123 24.8579 20.1815 24.6625 19.9875L23.75 19.075C23.7053 19.0061 23.6816 18.9258 23.6816 18.8438C23.6816 18.7617 23.7053 18.6814 23.75 18.6125C23.7781 18.537 23.8272 18.4711 23.8913 18.4224C23.9555 18.3737 24.0322 18.3443 24.1125 18.3375H25.475C26.0167 18.3181 26.5299 18.0901 26.9073 17.701C27.2848 17.312 27.4971 16.792 27.5 16.25V13.825C27.5 13.2669 27.2792 12.7315 26.8857 12.3356C26.4922 11.9398 25.9581 11.7158 25.4 11.7125ZM15 19.375C14.1347 19.375 13.2888 19.1184 12.5694 18.6377C11.8499 18.1569 11.2892 17.4737 10.958 16.6742C10.6269 15.8748 10.5403 14.9951 10.7091 14.1465C10.8779 13.2978 11.2946 12.5183 11.9064 11.9064C12.5183 11.2946 13.2978 10.8779 14.1465 10.7091C14.9951 10.5403 15.8748 10.6269 16.6742 10.958C17.4737 11.2892 18.1569 11.8499 18.6377 12.5694C19.1184 13.2888 19.375 14.1347 19.375 15C19.375 16.1603 18.9141 17.2731 18.0936 18.0936C17.2731 18.9141 16.1603 19.375 15 19.375Z" fill="#AAA0BA" stroke="#705D91" stroke-width="2" mask="url(#path-2-inside-1_125_1810)"/>
</svg>
